<?xml version="1.0" encoding="utf-8"?>
<!-- Generator: Adobe Illustrator 27.8.0, SVG Export Plug-In . SVG Version: 6.00 Build 0)  -->
<svg version="1.1" id="Ebene_1" xmlns="http://www.w3.org/2000/svg" xmlns:xlink="http://www.w3.org/1999/xlink" x="0px" y="0px"
	 viewBox="0 0 53 35" style="enable-background:new 0 0 53 35;" xml:space="preserve">
<style type="text/css">
	.st0{fill:#FFFFFF;}
</style>
<path class="st0" d="M41.7,12.6c-1.2,0-2.4,0.2-3.4,0.6L31.8,0.7h-7.5V4h5.5l1.9,3.7l-5.2,11.7l-3.8-9.1c0.6-0.2,1.1-0.8,1.1-1.5
	c0-0.9-0.7-1.6-1.6-1.6h-4.3c-0.9,0-1.6,0.7-1.6,1.6s0.7,1.6,1.6,1.6h1.3L24,21.8h-2c-0.8-5.2-5.2-9.2-10.7-9.2
	c-6,0-10.8,4.9-10.8,10.8s4.9,10.8,10.8,10.8c5.4,0,9.9-4,10.7-9.2h5.6l6-13.7l1.7,3.3c-1.4,1-2.5,2.3-3.3,3.8
	c-0.8,1.5-1.2,3.2-1.2,4.9c0,6,4.9,10.8,10.8,10.8s10.8-4.9,10.8-10.8S47.6,12.6,41.7,12.6z M11.3,31c-4.2,0-7.6-3.4-7.6-7.6
	s3.4-7.6,7.6-7.6c3.6,0,6.7,2.6,7.4,6H9.2v3.2h9.6c-0.4,1.7-1.3,3.2-2.6,4.3C14.7,30.4,13.1,31,11.3,31z M41.7,31
	c-4.2,0-7.6-3.4-7.6-7.6c0-2.3,1.1-4.4,2.8-5.8l3.9,7.6l2.9-1.6l-3.9-7.6c0.6-0.2,1.3-0.3,2-0.3c4.2,0,7.6,3.4,7.6,7.6
	S45.8,31,41.7,31z"/>
</svg>
