<svg width="35" height="43" viewBox="0 0 35 43" fill="none" xmlns="http://www.w3.org/2000/svg">
<path d="M26.6938 16.3125L23.5472 10.4366L17.3807 8.38103L17.3665 8.42491L7.78231 11.1632C7.10435 11.3592 6.50818 11.7696 6.08318 12.333C5.65819 12.8964 5.42726 13.5824 5.42504 14.2881V22.8125H8.67504V14.2882L16.15 12.1526L12.848 22.2715L12.8323 22.2658L9.83986 30.6448C9.69507 31.0436 9.40079 31.3705 9.01929 31.5562C8.63778 31.742 8.19898 31.7721 7.79571 31.6401L1.06394 29.3958L0.0361328 32.4791L6.7679 34.7229C7.97736 35.1259 9.29659 35.0392 10.4428 34.4812C11.5891 33.9232 12.4712 32.9384 12.9 31.7379L15.3611 24.847L17.1052 25.4157L22.0107 30.3212C22.1623 30.4718 22.2825 30.651 22.3644 30.8484C22.4462 31.0458 22.4881 31.2575 22.4875 31.4712V42.3125H25.7375V31.4712C25.7393 30.8307 25.6139 30.1963 25.3688 29.6045C25.1238 29.0128 24.7638 28.4756 24.3097 28.0239L19.4078 23.1221L22.1279 14.7862L24.0849 18.3087C24.2961 18.6886 24.605 19.0051 24.9796 19.2256C25.3542 19.446 25.7809 19.5623 26.2156 19.5625H34.675V16.3125H26.6938ZM19.931 7.14207C20.5694 7.67551 21.3706 7.9753 22.2023 7.99195C23.0341 8.00859 23.8466 7.7411 24.5058 7.23363C25.165 6.72616 25.6315 6.00905 25.8281 5.20072C26.0248 4.39239 25.9399 3.54116 25.5875 2.78758C25.2351 2.03401 24.6362 1.42314 23.8898 1.05584C23.1433 0.688542 22.2939 0.586777 21.4819 0.767348C20.6698 0.947918 19.9436 1.40003 19.4231 2.04903C18.9027 2.69803 18.6191 3.50511 18.6192 4.33702C18.6183 4.87225 18.7353 5.40111 18.9621 5.88595C19.1888 6.37078 19.5196 6.79967 19.931 7.14207Z" fill="white"/>
</svg>
