<svg width="55" height="56" viewBox="0 0 55 56" fill="none" xmlns="http://www.w3.org/2000/svg">
<path d="M23.9882 15.2706C24.3044 15.1239 24.6576 15.0764 25.0013 15.1345C25.345 15.1926 25.663 15.3535 25.9134 15.596L29.4457 19.3741L18.4828 29.0467C19.5091 29.2508 20.2346 29.5882 20.8603 29.8801C21.696 30.2701 22.3561 30.5783 23.8162 30.5783C25.2763 30.5783 25.9365 30.2702 26.7723 29.8801L26.7889 29.8723C28.4035 29.1197 29.9018 28.1393 31.238 26.9612L34.1435 24.3975L39.8261 30.4746C40.4899 30.3525 40.9606 30.1341 41.5045 29.8804C42.0874 29.5919 42.6953 29.357 43.3207 29.1786L28.4011 13.2235L28.361 13.1822C27.6113 12.4358 26.6508 11.9373 25.609 11.7537C24.5672 11.5702 23.4941 11.7105 22.5345 12.1558L15.6013 15.3913L17.055 18.5066L23.9882 15.2706Z" fill="white"/>
<path d="M39.9609 18.5469C42.0967 18.5469 43.8281 16.8155 43.8281 14.6797C43.8281 12.5439 42.0967 10.8125 39.9609 10.8125C37.8251 10.8125 36.0938 12.5439 36.0938 14.6797C36.0938 16.8155 37.8251 18.5469 39.9609 18.5469Z" fill="white"/>
<path d="M45.9148 40.8908C43.6919 40.8908 42.4791 41.4567 41.5048 41.9113C40.6688 42.3014 40.0086 42.6096 38.5482 42.6096C37.0878 42.6096 36.4278 42.3015 35.592 41.9113C34.6176 41.4567 33.405 40.8908 31.1821 40.8908C28.9592 40.8908 27.7466 41.4568 26.7723 41.9113C25.9365 42.3014 25.2764 42.6096 23.8162 42.6096C22.356 42.6096 21.696 42.3015 20.8603 41.9113C19.8859 41.4567 18.6734 40.8908 16.4506 40.8908C14.2278 40.8908 13.0151 41.4568 12.0408 41.9113C11.205 42.3014 10.5449 42.6096 9.08467 42.6096C7.62448 42.6096 6.96438 42.3015 6.12853 41.9113C5.15421 41.4568 3.94152 40.8908 1.71875 40.8908V44.3283C3.17894 44.3283 3.83904 44.6364 4.67489 45.0266C5.64921 45.4812 6.86189 46.0471 9.08467 46.0471C11.3074 46.0471 12.5201 45.4811 13.4944 45.0266C14.3303 44.6365 14.9904 44.3283 16.4506 44.3283C17.9108 44.3283 18.5708 44.6364 19.4065 45.0266C20.3808 45.4812 21.5934 46.0471 23.8162 46.0471C26.039 46.0471 27.2516 45.4811 28.226 45.0266C29.0618 44.6365 29.722 44.3283 31.1821 44.3283C32.6422 44.3283 33.3025 44.6364 34.1383 45.0266C35.1128 45.4812 36.3254 46.0471 38.5482 46.0471C40.7711 46.0471 41.9839 45.4812 42.9583 45.0266C43.7942 44.6365 44.4545 44.3283 45.9148 44.3283C47.3751 44.3283 48.0354 44.6364 48.8712 45.0266C49.8457 45.4813 51.0584 46.0471 53.2812 46.0471V42.6096C51.821 42.6096 51.1606 42.3015 50.3249 41.9113C49.3504 41.4567 48.1377 40.8908 45.9148 40.8908ZM52.9912 34.0112C51.73 33.9727 51.1032 33.6809 50.325 33.3177C49.3941 32.8833 48.2436 32.3488 46.2051 32.3017C46.1096 32.2996 46.0144 32.2971 45.915 32.2971C45.8156 32.2971 45.7204 32.2996 45.625 32.3017C43.5864 32.3488 42.4358 32.8833 41.5051 33.3177C40.7267 33.6809 40.1 33.973 38.8387 34.0112C38.7454 34.014 38.6492 34.0158 38.5487 34.0158C38.4481 34.0158 38.3519 34.014 38.2586 34.0112C36.9974 33.9727 36.3707 33.6809 35.5925 33.3177C34.6617 32.8834 33.5112 32.3489 31.4728 32.3017C31.3773 32.2996 31.2822 32.2971 31.1827 32.2971C31.0833 32.2971 30.9882 32.2996 30.8927 32.3017C28.8543 32.3488 27.7037 32.8834 26.773 33.3177C25.9948 33.6809 25.3681 33.973 24.107 34.0112C24.0136 34.014 23.9175 34.0158 23.8169 34.0158C23.7164 34.0158 23.6202 34.014 23.5269 34.0112C22.2659 33.9727 21.6392 33.6809 20.8611 33.3177C19.9304 32.8834 18.7799 32.3488 16.7416 32.3017C16.6718 32.2998 16.602 32.2986 16.5321 32.2982C16.5047 32.2982 16.4784 32.2969 16.4512 32.2969C16.3518 32.2969 16.2566 32.2993 16.1612 32.3015C14.1229 32.3485 12.9723 32.8832 12.0416 33.3175C11.2633 33.6807 10.6367 33.9728 9.37557 34.011C9.28222 34.0138 9.18607 34.0156 9.08553 34.0156C8.98498 34.0156 8.88884 34.0138 8.79549 34.011C7.5335 33.9729 6.90723 33.6809 6.12853 33.3176C5.19782 32.8833 4.04733 32.3487 2.0089 32.3016C1.9134 32.2995 1.81822 32.297 1.71886 32.297V35.7345C3.17904 35.7345 3.83915 36.0426 4.675 36.4327C5.64932 36.8873 6.862 37.4532 9.08478 37.4532C11.3075 37.4532 12.5202 36.8872 13.4946 36.4327C14.3304 36.0427 14.9905 35.7345 16.4507 35.7345C17.9109 35.7345 18.5709 36.0426 19.4066 36.4327C20.3809 36.8873 21.5935 37.4532 23.8163 37.4532C26.0391 37.4532 27.2517 36.8872 28.2261 36.4327C29.0619 36.0427 29.7221 35.7345 31.1822 35.7345C32.6423 35.7345 33.3026 36.0426 34.1385 36.4327C35.1129 36.8873 36.3255 37.4532 38.5483 37.4532C40.7712 37.4532 41.984 36.8873 42.9584 36.4327C43.7943 36.0427 44.4546 35.7345 45.9149 35.7345C47.3752 35.7345 48.0355 36.0426 48.8713 36.4327C49.8458 36.8874 51.0585 37.4532 53.2814 37.4532V34.0158C53.1806 34.0158 53.0845 34.014 52.9912 34.0112Z" fill="white"/>
</svg>
