<?xml version="1.0" encoding="UTF-8"?>
<svg id="Ebene_2" data-name="Ebene 2" xmlns="http://www.w3.org/2000/svg" viewBox="0 0 59.84 82.27">
  <defs>
    <style>
      .cls-1 {
        fill: #122317;
      }

      .cls-1, .cls-2 {
        stroke-width: 0px;
      }

      .cls-2 {
        fill: #ea6520;
      }
    </style>
  </defs>
  <g id="Ebene_1-2" data-name="Ebene 1">
    <g>
      <path class="cls-2" d="m29.92,18.7v11.22l14.96-14.96L29.92,0v11.22c-7.93,0-15.54,3.15-21.16,8.76C3.15,25.59,0,33.2,0,41.14c0,5.87,1.72,11.33,4.64,15.93l5.46-5.46c-1.73-3.22-2.63-6.82-2.62-10.47,0-5.95,2.36-11.66,6.57-15.87s9.92-6.57,15.87-6.57Z"/>
      <path class="cls-1" d="m55.2,25.21l-5.46,5.46c1.65,3.14,2.62,6.73,2.62,10.47,0,5.95-2.36,11.66-6.57,15.87-4.21,4.21-9.92,6.57-15.87,6.57v-11.22l-14.96,14.96,14.96,14.96v-11.22c7.93,0,15.54-3.15,21.16-8.76,5.61-5.61,8.76-13.22,8.76-21.16,0-5.87-1.72-11.33-4.64-15.93Z"/>
    </g>
  </g>
</svg>