<?xml version="1.0" encoding="UTF-8"?>
<svg id="Ebene_2" data-name="Ebene 2" xmlns="http://www.w3.org/2000/svg" viewBox="0 0 72.63 99.87">
  <defs>
    <style>
      .cls-1 {
        fill: #fff;
      }

      .cls-1, .cls-2 {
        stroke-width: 0px;
      }

      .cls-2 {
        fill: #ea6520;
      }
    </style>
  </defs>
  <g id="Ebene_1-2" data-name="Ebene 1">
    <g>
      <path class="cls-2" d="m36.32,22.7v13.62l18.16-18.16L36.32,0v13.62c-9.63,0-18.87,3.83-25.68,10.64C3.83,31.07,0,40.3,0,49.94c0,7.13,2.09,13.76,5.63,19.34l6.63-6.63c-2.1-3.91-3.19-8.28-3.18-12.71,0-7.22,2.87-14.15,7.98-19.26,5.11-5.11,12.04-7.98,19.26-7.98Z"/>
      <path class="cls-1" d="m67.01,30.6l-6.63,6.63c2,3.81,3.18,8.17,3.18,12.71,0,7.22-2.87,14.15-7.98,19.26-5.11,5.11-12.04,7.98-19.26,7.98v-13.62l-18.16,18.16,18.16,18.16v-13.62c9.63,0,18.87-3.83,25.68-10.64,6.81-6.81,10.64-16.05,10.64-25.68,0-7.13-2.09-13.76-5.63-19.34Z"/>
    </g>
  </g>
</svg>