<?xml version="1.0" encoding="UTF-8"?>
<svg id="Ebene_1" data-name="Ebene 1" xmlns="http://www.w3.org/2000/svg" xmlns:xlink="http://www.w3.org/1999/xlink" viewBox="0 0 141.73 68.03">
  <defs>
    <style>
      .cls-1 {
        clip-path: url(#clippath);
      }

      .cls-2 {
        fill: none;
      }

      .cls-2, .cls-3, .cls-4 {
        stroke-width: 0px;
      }

      .cls-4 {
        fill: #bf4c0c;
      }
    </style>
    <clipPath id="clippath">
      <rect class="cls-2" y="0" width="141.73" height="68.03"/>
    </clipPath>
  </defs>
  <g class="cls-1">
    <path class="cls-4" d="m133.36,51.36s-.02.04-.04.04c-.02-.02-.04-.02-.04-.06,0,0,0-.02.02-.02.02.02.04.04.06.04m2.72,3.9c0-.3,0-.57-.02-.83,0-.06,0-.08.04-.13.07-.08.04-.21.04-.3-.02-.13.02-.27,0-.42-.04-.45,0-.91.04-1.36.02-.28.1-.57.17-.85.04-.13.17-.13.28-.13.06,0,.1,0,.11-.08.02-.04.06-.06.1-.06.1-.02.21-.17.32.02.04.06.17.02.25.11h.02c.11-.19.28.06.4-.06,0,0,.04,0,.04.02.06.11.11.06.17.02.1-.04.19-.07.26.04.02,0,.06.02.08,0,.11-.08.25.09.36.02.08.11.23,0,.29.13,0,.02.02.02.04.02.19-.02.25.02.29.17.09.36.17.72.08,1.08-.04.21-.02.42.02.62.02.11-.02.23-.02.34-.02.45-.06.91-.02,1.36.02.63-.13,1.25-.13,1.88,0,.47-.1.93-.1,1.42-.02.4-.06.81-.08,1.21-.02.51-.02,1.02,0,1.54.04.61-.02,1.2,0,1.8.02.49.04,1,.02,1.5,0,.53-.04,1.06-.19,1.59l-.06.15c-.08.1-.06.19-.08.29-.06.13-.17.17-.28.19-.13,0-.25-.02-.36.08-.13.09-.3.06-.46.08-.32.06-.66.04-.99.09-.11.04-.25-.02-.34-.09-.08-.04-.15-.08-.23-.08-.19.02-.28-.1-.36-.23-.25-.42-.34-.89-.42-1.36-.06-.3-.15-.57-.26-.85-.15-.32-.21-.68-.28-1.02l-.11-.4c-.08-.3-.15-.62-.25-.93,0-.04-.02-.06-.04-.09-.04.02-.04.04-.04.08-.04.42-.08.83-.08,1.25,0,.11-.02.25-.02.36,0,.51-.02,1.02-.11,1.52-.06.28-.11.55-.15.83-.04.27-.06.51-.13.76-.02.08-.06.13-.08.21-.04-.13-.17-.23-.13-.38-.09.02-.07.11-.09.17-.11-.06-.23-.17-.36-.09-.02,0-.02.02-.02.02-.11-.15-.17.06-.23.04-.08-.02-.19.02-.25-.06-.11-.13-.11-.02-.15.06-.02.04-.02.08-.04.13-.04-.06-.02-.1-.02-.13s-.04-.08-.06-.06c-.07.13-.07.02-.09-.02-.02-.04-.06-.06-.11-.04-.04,0-.04.04-.06.08,0,.06.02.11-.04.15-.04-.06-.02-.11,0-.19-.15.1-.23-.06-.34-.08-.1,0-.19-.08-.3-.08-.06,0-.19-.04-.27-.1-.02-.04-.06-.06-.09-.06-.19-.02-.21-.15-.23-.3-.04-.28-.02-.59-.04-.89,0-.27.1-.51.1-.76s.02-.49-.04-.74c-.02-.13.02-.27.04-.38.04-.4.02-.8.11-1.18.08-.36.04-.74.02-1.1-.04-.4-.04-.78.04-1.16.04-.28.06-.57,0-.85-.08-.45-.08-.89-.06-1.35.04-.34.06-.68.09-1,.04-.17,0-.36,0-.53.02-.17.02-.36.02-.53,0-.25-.04-.49-.02-.74.04-.4.08-.82.04-1.21l-.06-1.02c-.02-.23-.04-.45.04-.68.06-.21.15-.23.34-.23.19.02.38.06.53-.06.08-.06.15-.06.25-.04.04.02.11.04.17.02.19-.02.36-.04.55,0,.08,0,.13-.04.21-.02.08,0,.15,0,.21.06.04.04.08.04.13,0,.11-.06.19.08.3.06.04,0,.1.06.1-.04.02-.02.06,0,.09.02.09.07.17.19.32.13,0,0,.04.02.04.04.07.3.32.51.45.78.23.4.4.81.57,1.23.15.34.21.72.38,1.06.08.17.09.34.23.55m-11.72,10.99h.26c-.07.06-.17.02-.26,0m-.36-.04c.08-.04.11-.02.15.04-.06.06-.09,0-.15-.04m3.11-.19s-.04-.02-.04-.04.02-.04.04-.06c.02.02.04.02.04.02,0,.02-.02.06-.04.08m.36-.26s-.06,0-.04-.04c0,0,.04-.02.06-.02l.02.02s-.02.04-.04.04m-3.82-9.48v-.08l.02.04s.02.06,0,.06c-.04.04-.02,0-.02-.02m1.85,6.12c-.02.17-.04.32-.04.49.02.26-.06.51-.17.76-.06.15-.15.25-.36.19-.21-.06-.44,0-.63-.19-.11-.09-.13-.19-.13-.34.02-.72.06-1.42,0-2.14-.07-.82-.13-1.65-.07-2.46.02-.36-.06-.74-.02-1.1.02-.27-.02-.57.19-.8.02-.02.04-.06.04-.08-.1-.28.1-.53.11-.8,0-.3.02-.63,0-.95,0-.11.02-.17.15-.23.17-.06.27-.27.51-.23.23.04.49.32.47.57,0,.13-.02.25-.04.38v.38h-.02c0,.25.02.49-.02.72-.04.28.06.55.06.83s.02.57.06.87c.08.63,0,1.27.02,1.9,0,.45.02.91.04,1.36.02.3-.11.57-.15.85m-5.02-9.5c-.08.1-.1.17-.08.25l.08-.25Zm6.69,0l-.04-.06s.02-.02.04-.02c0,.02.02.04.04.08h-.04Zm.34.13c.08-.15-.02-.21-.09-.28-.06-.04-.06-.08,0-.11.04-.02.08,0,.11.02.13.11.23.59.13.76-.11-.09-.23-.23-.15-.38m.54-.63s.04-.09.08-.08c.06.04.09.09.11.17-.04-.08-.21.06-.19-.09m-.59-.11s-.04-.04-.02-.06c.02,0,.04,0,.04.02.02,0,.02.02.02.04h-.04Zm.36.13c-.06.04.04.13-.06.13-.06,0-.07-.02-.11-.06-.1-.09.06-.04.06-.08v-.06c.04-.06-.11-.09-.02-.13.07-.04.15.04.17.08.04.08.15.13.11.25-.08-.02-.08-.11-.15-.13m-.23-.28s-.04-.02-.04-.04l.04-.04s.04.04.04.06c-.02.02-.04.04-.04.02m.1-.08s.02-.04.02-.04c.06.02.08.06.08.1.02.06-.04.04-.06.04-.04-.02-.06-.06-.04-.1m-.21-.32s.02-.02.04-.02.04.02.06.04c-.04,0-.06.02-.06.02-.02,0-.04-.02-.04-.04m-.21-.11s0-.04.02-.04c.04,0,.06.02.06.04s-.02.04-.04.04c-.02-.02-.04-.02-.04-.04m-4.57-.15s-.02-.02-.02-.04c.02-.02.04-.02.06-.02l.02.02s-.04.04-.06.04m4.15-.09s-.04-.02-.04-.04.02-.04.06-.02l.04.04s-.04.04-.06.02m-1.06-.26s-.04-.02-.06-.02c.06-.06.11-.06.13-.02.02.06-.04.04-.08.04m3.02,6.88c-.02-.4-.1-.82-.15-1.23-.06-.34-.06-.68-.06-1.02,0-.11,0-.26.02-.42.11.13.04.28.09.44.02-.06.04-.1.06-.11.11-.15-.04-.3-.02-.45.02-.42-.08-.83,0-1.23.02-.06,0-.11,0-.19,0-.04-.02-.08-.08-.08-.04-.02-.06-.02-.07.02s0,.1.06.11v.21c-.06-.09,0-.15,0-.21l-.11.08c.02-.11-.06-.21.04-.28q.11-.09,0-.19c.11-.06.13-.13.11-.28-.06-.28-.21-.53-.32-.78-.04-.04-.08-.17-.15-.11-.11.08-.11-.02-.11-.06.04-.17-.08-.28-.19-.34-.19-.09-.23-.28-.36-.42-.08-.06,0-.21-.13-.25-.08.08.04.15-.02.23-.17-.08-.32-.15-.47-.21-.1-.02-.11-.09-.17-.15-.17.17-.34,0-.51-.02-.23-.02-.46-.02-.68-.06-.19-.02-.4-.11-.61.04-.08.06-.29-.06-.42.06l-.08-.02c-.02-.19-.15-.08-.23-.09.06.04.11.08.08.17-.09-.04-.15-.09-.28-.02-.11.06-.11-.04-.04-.13-.34,0-.61.21-.95.21.04.08.1.02.13.1-.13-.06-.25.04-.36,0-.11-.02-.13.15-.25.11,0,0-.04.06-.08.02-.07-.13-.23,0-.25.02-.19.19-.38.4-.57.61-.11.13-.11.32-.26.44-.1.1-.19.15-.1.28.02.04-.02.08-.06.06-.09,0-.09.08-.13.15-.23.55-.21,1.14-.17,1.71.02.09-.1.13-.04.23.17.27.13.59.15.87.02.42-.13.82-.15,1.23-.02.53-.17,1.06-.11,1.57.06.8-.02,1.61.06,2.41.06.64.06,1.29.06,1.93,0,.45.11.91.19,1.35.1.68.53,1.21,1,1.67.36.36.87.45,1.33.62.32.11.68.19,1.02.13.3-.06.57.02.83.08.25.04.49.04.74.02.49,0,.93-.27,1.29-.59.19-.15.38-.28.55-.44.21-.19.4-.36.51-.61.17-.42.25-.87.25-1.31.02-.38.07-.76.11-1.14.02-.36.08-.7.04-1.06-.02-.4,0-.78-.02-1.18-.02-.28.06-.59.1-.89.08-.53-.04-1.06-.06-1.59m-18.46,7.71c-.04-.53-.09-1.12-.09-1.69,0-.61-.06-1.19-.11-1.8-.04-.38,0-.74.08-1.12.02-.06.02-.15.02-.21-.08-1.06.1-2.1.06-3.17-.02-.68-.04-1.38-.09-2.07-.04-.38,0-.74.08-1.1.06-.42.06-.87-.02-1.29-.06-.51-.08-1.02.02-1.53.04-.19.17-.27.28-.27.25.02.44-.09.66-.17.23-.06.47.02.7-.02.13-.04.42,0,.72-.02.3-.02.63,0,.95.04.08.02.19.08.21.21.13.62.25,1.25.13,1.9-.04.23-.06.47-.02.7.04.28.02.59-.04.89-.11.61,0,1.19.08,1.8.1.83.11,1.65.04,2.48-.04.61,0,1.23-.04,1.84-.02.47-.06.95-.08,1.4-.02.44.19.66.61.64.62-.02,1.23.04,1.84-.06.15-.04.29.02.44.04.44.02.87-.02,1.31-.06.28-.04.55,0,.82.13.09.08.23.1.36.04.11-.06.27.04.29.13.04.28.15.57.21.85.08.45.06.7-.06,1.16-.1.36-.1.72-.21,1.08-.02.11-.04.17-.17.15-.34-.04-.7.04-1.04.09-.46.09-.93.08-1.38,0-.36-.06-.72-.04-1.08-.02-.85.04-1.71-.11-2.54-.11-.57.02-1.14,0-1.71,0-.23.02-.42-.02-.63-.09-.06-.04-.13-.06-.17-.08-.11-.06-.27.06-.34-.08-.08-.13-.08-.32-.08-.47,0-.06,0-.1.02-.17m-5.22-.23c-.04.06-.04.13,0,.19.08-.08.04-.13,0-.19m-.97-.61s-.04-.02-.04-.02c-.02.02-.02.04-.02.06,0,0,.04.02.04,0,.02,0,.02-.02.02-.04m.06-1.89s-.02.06-.02.08c0,.02,0,.06.04.04.02,0,.04-.04.04-.06s-.02-.04-.06-.06m-.13-.32c-.1.13-.08.23-.02.34,0-.11.1-.19.02-.34m-5.04-2.05c.02-.09.04-.19-.06-.32,0,.15-.02.25.06.32m-.04-.74c0,.13-.04.21.04.27.02-.08.02-.15-.04-.27m.02-.47c-.06.15-.06.25,0,.34.04-.09,0-.19,0-.34m.08-.19s-.02-.06-.04-.06c-.08-.02-.06.04-.04.06,0,.02.02.04.04.06l.04-.06Zm1.36-.76c0-.06.08-.08.1-.11-.02-.02-.06-.02-.08-.02-.08,0-.04.06-.04.09,0,.02.02.02.02.04m.28-.17c.04.15-.02.25.06.32-.02-.07.06-.17-.06-.32m-2.17-.53s-.04-.02-.06-.02-.04.02-.04.04l.04.04s.04-.02.06-.06m.57.06c-.04-.08.02-.13-.1-.19.04.08,0,.11.1.19m1.46-.72c0-.11.04-.19-.04-.27-.08.09-.1.15.04.27m.42.08c.21-.1.13-.21.02-.32-.04-.02.04-.17-.1-.11-.09.06-.09.17-.04.21.13.04.06.15.11.23m-.74-.82s-.02.06-.02.08,0,.06.04.04c.02,0,.04-.04.04-.06s-.02-.04-.06-.06m.13-.17c.02.13.02.23.02.32.02-.09.06-.19-.02-.32m-.36.13s.02-.08.02-.09c0-.04.02-.11-.06-.08-.06.04-.02.09.04.17m-1.42-.93s-.08-.08-.11-.1c0,.02-.02.04-.02.08.02.02.02.06.06.06.02,0,.04-.02.08-.04m.21-.68s-.02-.06-.06-.04c-.02,0-.02.04-.02.04,0,.02.02.04.04.06,0-.02.02-.04.04-.06m1.86-.23c-.1.11-.08.23-.04.34.02-.11.11-.23.04-.34m.21-.36s-.02-.04-.02-.02,0,.02.02.04v-.02Zm-1.44-2.79s-.06.06-.04.1c0,.02.02.02.04.02.02-.04.04-.08,0-.11m.99-.15c-.02-.09-.02-.15.02-.21l.06.04c.08.08,0,.11-.07.17m5.34,14.82c-.04.17-.15.23-.28.29-.02-.1.06-.19-.04-.29-.02.08-.04.13-.07.23-.04-.15-.11-.13-.23-.13-.15.02-.25.06-.26.19-.04-.02-.06-.02-.06-.02-.1-.13-.19-.32-.34-.32-.13,0,.02.23-.1.32-.13-.11-.23-.3-.46-.27-.08.02-.1-.07-.11-.15-.13-.85-.04-1.71-.02-2.56.04-.82.08-1.63.06-2.46,0-.09-.02-.15-.15-.15-.53,0-1.06.02-1.59-.06-.15-.02-.19.06-.19.21,0,.42.02.83,0,1.25-.04.87-.04,1.76-.06,2.65,0,.46.06.91-.04,1.37-.02.13-.1.27-.11.4-.02.06-.07.15-.23.09-.21-.06-.44.04-.66.06-.28.02-.59-.02-.83.08-.47.15-.91-.06-1.36.08-.26.06-.42-.06-.42-.34-.02-.72,0-1.42.02-2.14v-.17c-.08-.91-.1-1.82-.04-2.73.09-1.23-.02-2.45.02-3.68.02-1.35,0-2.71,0-4.06-.02-.81-.08-1.65.06-2.46.02-.17.1-.23.28-.13.17.07.4-.02.53.19.04.04.04-.09.1-.11l.06.25c.13,0,.06-.13.11-.17.08-.08.13-.21.23-.13.25.21.38-.08.57-.09.06.13-.06.26,0,.42.11-.13.15-.27.06-.49.17.17.1.3.1.44.21-.09.17-.13.32-.28.1-.11.3-.1.49-.06.17.04.06.13.08.23-.13,0-.08-.13-.15-.17-.08.11-.1.23.02.26.06.04.17-.02.21-.13.04-.08.09-.15.17-.3-.04.49.25.87.11,1.31.15-.17.02-.42.21-.65,0,.11.04.19.04.25,0,.55.06,1.08.13,1.63.06.34-.13.64-.09.99.04.51.04,1,.06,1.52.02.42,0,.83.06,1.25.02.13,0,.25.21.17.11-.04.3,0,.45.08.17.08.4,0,.59-.02,0-.08-.11-.02-.11-.11,0-.06.06-.06.11-.06.17-.02.36-.04.55-.02.13,0,.19,0,.19-.15.02-.21.04-.42.02-.62-.09-.93,0-1.84-.02-2.77,0-.68,0-1.36.02-2.05.02-.25-.02-.51.15-.72.17.25.26.25.64.04.06-.04.08-.08.15-.06.28.06.55.06.83-.06.13-.06.3.11.47.11.06,0,.1.04.15.02.21-.11.42-.02.64,0,.23.04.26.17.3.36.15.59.15,1.19.17,1.8.04.91-.02,1.82.06,2.73.06.61.06,1.23.06,1.84,0,.91-.04,1.82-.11,2.71-.06.55-.02,1.1-.06,1.65-.06,1.16-.13,2.29-.13,3.43,0,.26-.11.51-.08.76.02.06,0,.1-.06.1-.11,0-.25-.02-.28-.11-.08-.11-.15-.08-.21-.04-.19.1-.3-.08-.42-.13-.09-.04-.13-.08-.17.02-.15.27-.19.04-.3-.1m-16.52-11.6c-.44,0-.87.09-1.31.02-.59-.09-.68-.19-.82-.74-.11-.44-.11-.87-.02-1.31.04-.11,0-.27.02-.38.06-.36.23-.51.74-.51.59-.02,1.18-.11,1.76-.11.89-.02,1.78-.13,2.67-.11.91.04,1.82.04,2.73.04.38,0,.78-.06,1.16.11.1.06.11.08.11.19.02.25-.02.47.02.72.02.04.06.06.02.09-.21.3-.04.66-.15.97-.02.04-.02.09.02.11.19.11.08.28.08.42,0,.3-.23.34-.44.4-.25.06-.47.08-.72.08-.38-.02-.76,0-1.14.02-.17,0-.32.02-.47,0-.34,0-.36,0-.36.32.02.47,0,.95.06,1.42.04.38.04.76-.02,1.14-.08.57-.06,1.16-.06,1.72,0,.68-.06,1.35-.15,2.03-.04.32.06.64.08.97.02.51,0,1.02.02,1.55,0,.19.02.36.04.55.09.74.02,1.48-.08,2.2-.02.23-.21.42-.47.44l-.66.06c-.29.04-.55-.08-.83-.06-.11,0-.23-.02-.34,0-.26.02-.53-.08-.76-.19-.06-.04-.08-.17-.08-.25-.02-.46-.13-.91-.09-1.37.09-.89.06-1.78.11-2.67.04-.47-.04-.95,0-1.42.04-.7-.04-1.38.02-2.09v-.06c-.17-.8.02-1.59-.11-2.37-.11-.55,0-1.08.07-1.63.04-.28.02-.3-.28-.3h-.36Zm-7.92,6.06h1.23c.08,0,.13-.02.11-.11-.04-.23-.02-.49-.1-.7-.21-.65-.28-1.31-.32-1.99-.02-.15-.02-.32-.13-.51-.28,1.14-.34,2.26-.8,3.32m3.42-3.34s.04-.06.04-.1c.02-.04-.02-.06-.06-.04-.02,0-.02.04-.02.08,0,.02.02.04.04.06m-.06-.19c.06-.17,0-.25-.08-.34l.08.34Zm-6.24-2.22c.08-.08.08-.11.04-.17-.06.04-.04.1-.04.17m.11-.49c.06-.06.11-.1.06-.17-.04.04-.08.08-.06.17m7.53,12.4c-.06-.21-.13-.21-.25-.1-.09.11-.19.27-.38.11-.02-.02-.19.02-.28.04-.23.06-.47.15-.7.11-.25-.04-.49-.11-.74-.19-.08-.02-.08-.09-.09-.17-.28-.87-.3-1.78-.47-2.67-.02-.11-.04-.13-.13-.15-.55-.02-1.1-.06-1.65-.1-.23-.02-.47-.06-.72-.09-.1,0-.15.02-.17.15-.15.59-.28,1.16-.51,1.72-.11.28-.11.63-.25.93-.1.21-.3.28-.53.32-.26.04-.53-.09-.78-.04-.21.06-.38.08-.57.02-.25-.08-.44.13-.66.1-.23-.04-.44.04-.64.04-.17-.02-.32-.38-.29-.53.06-.3.13-.59.21-.89.04-.15.21-.25.25-.42.1-.36.21-.7.29-1.04.02-.13-.08-.3,0-.44.3-.51.36-1.1.61-1.63.08-.15.21-.34.06-.57-.04-.04.02-.19.06-.28.21-.38.32-.8.42-1.19.06-.19,0-.42.08-.61.15-.36.15-.74.25-1.12.09-.38.23-.76.28-1.14.1-.53.25-1.04.4-1.56.02-.06-.02-.15.11-.13.08.02.1-.06-.02-.17-.04-.02-.02-.06,0-.08.02-.13.04-.26.08-.4,0-.06,0-.17.11-.06.04.04.06-.08.04-.09-.21-.21-.02-.42.04-.57.32-.61.53-1.27.8-1.9.07-.15.04-.34.19-.47.06-.06.13-.15.21-.15.3-.02.61-.08.93.02.08.02.15.02.23-.02.15-.09.3.08.49.02.17-.06.38-.08.59-.04.15.04.3.15.49.08.06-.02.19.08.23.21.08.21.17.42.36.55.15.11.09.28.17.42.27.53.38,1.12.57,1.69.23.68.32,1.36.44,2.07.13.68.3,1.36.44,2.07.04.21,0,.45.09.64.13.27.17.53.1.81-.04.15.11.15.15.27.17.72.17,1.44.38,2.16.15.44.19.93.28,1.38s.21.89.27,1.35c.04.42.17.83.09,1.25-.09.44-.32.57-.7.34-.19-.11-.19-.02-.21.13m-11.9-8.45c0-.08.02-.13.02-.19.02-.04.02-.02.04,0,.06.11.06.23.06.34-.04,1.12.04,2.24.08,3.35.02.68-.08,1.36-.02,2.07.06.64-.04,1.31-.02,1.95.02.28-.11.57-.17.83-.02.08-.08.13-.17.15-.34.04-.7.15-1.02.11-.38-.04-.78.04-1.16-.11-.11-.06-.21.09-.34.09-.19,0-.34-.09-.53-.13-.07-.02-.17-.1-.19-.19-.09-.7-.09-1.38.02-2.09.06-.28.1-.57-.04-.85-.1-.21-.02-.44-.04-.66,0-.68-.06-1.35-.08-2.03-.06-.95-.1-1.89-.04-2.84.04-.45-.02-.93-.02-1.38.02-.64.08-1.29.1-1.93,0-.61-.04-1.21.06-1.8.06-.4.08-.8.11-1.19.04-.28.3-.44.53-.55.44-.23.89-.15,1.35.04.13.06.27.08.4,0,.13-.07.25-.07.34.04.1.1.27-.06.32.08.11.34.28.68.32,1.04.08.55.08,1.1,0,1.65-.06.61.11,1.19.17,1.78.04.36.02.72-.04,1.08-.04.28-.13.59-.09.85.02.17-.1.34.06.49m-10.63-2.58h0v1.16c0,.11.06.15.17.15.17,0,.34-.04.51-.06.11-.02.17-.09.17-.21.08-.72.09-1.44-.11-2.16-.04-.06-.06-.11-.15-.11-.13.02-.27,0-.4-.04-.17-.02-.21.06-.21.21.02.36.02.7.02,1.06m.5,6.88c.02.89-.06,1.72-.13,2.56-.06.45-.02.93-.15,1.36-.08.21-.17.32-.4.29-.57-.08-1.14-.04-1.71,0-.13,0-.25-.06-.36.04-.08.08-.09-.06-.17-.08-.32-.04-.47-.23-.47-.55,0-.28-.04-.59.02-.85.11-.59.02-1.19.13-1.8.04-.21.06-.45.02-.66-.08-.66.04-1.31,0-1.97-.04-1.02-.06-2.03-.08-3.05,0-.72-.02-1.44-.08-2.14-.04-.66.08-1.33.08-1.99,0-.32-.08-.62-.08-.93,0-.23-.06-.45.04-.66.06-.11.04-.23.08-.36.1-.28.38-.53.68-.51.13.02.28-.02.42-.02.21-.02.42,0,.63.02.57.02,1.16,0,1.72-.11.25-.04.53-.02.8.02.28.04.57.04.85.11.66.19,1.27.47,1.63,1.14.32.59.38,1.21.47,1.82.13.78.11,1.55.1,2.33,0,.09,0,.19.02.26.08.25.08.49.02.74-.06.27-.08.55-.13.82-.06.34-.23.63-.51.85-.23.19-.44.44-.74.53-.08.04-.1.08-.06.15.04.08.07.17.13.27.17.32.25.64.3,1,.09.53.25,1.04.4,1.56.13.4.17.8.21,1.18.1.61.11,1.19.25,1.78.07.32.13.64-.02.97-.06.13-.13.21-.28.17-.13-.04-.25.06-.36.04-.28-.06-.57.06-.82.02-.23-.06-.49.11-.68-.09-.21.11-.4.02-.59,0-.36-.02-.34-.02-.4-.38-.1-.44-.19-.87-.3-1.29-.17-.63-.3-1.25-.3-1.9-.02-.21-.04-.42-.17-.66m-12.11-8.07c-.44,0-.87.09-1.31.02-.59-.09-.68-.19-.81-.74-.11-.44-.11-.87-.02-1.31.04-.11,0-.27.02-.38.06-.36.23-.51.74-.51.59-.02,1.17-.11,1.76-.11.89-.02,1.78-.13,2.67-.11.91.04,1.82.04,2.73.04.38,0,.78-.06,1.16.11.1.06.11.08.11.19.02.25-.02.47.02.72.02.04.06.06.02.09-.21.3-.04.66-.15.97-.02.04-.02.09.02.11.19.11.08.28.08.42,0,.3-.23.34-.44.4-.25.06-.47.08-.72.08-.38-.02-.76,0-1.14.02-.17,0-.32.02-.47,0-.34,0-.36,0-.36.32.02.47,0,.95.06,1.42.04.38.04.76-.02,1.14-.08.57-.06,1.16-.06,1.72,0,.68-.06,1.35-.15,2.03-.04.32.06.64.08.97.02.51,0,1.02.02,1.55,0,.19.02.36.04.55.1.74.02,1.48-.08,2.2-.02.23-.21.42-.47.44l-.66.06c-.28.04-.55-.08-.83-.06-.11,0-.23-.02-.34,0-.27.02-.53-.08-.76-.19-.06-.04-.08-.17-.08-.25-.02-.46-.13-.91-.09-1.37.09-.89.06-1.78.11-2.67.04-.47-.04-.95,0-1.42.04-.7-.04-1.38.02-2.09v-.06c-.17-.8.02-1.59-.11-2.37-.11-.55,0-1.08.08-1.63.04-.28.02-.3-.28-.3h-.36Zm-8.51,7.62s-.04.02-.04.04,0,.06.04.04c0-.02.02-.04.02-.06l-.02-.02Zm-.63-1.93s-.02-.04-.04-.06c-.04,0-.02.04-.04.06,0,.02.02.06.04.06.04,0,.04-.04.04-.06m4.32-.8s.02.04.04.06v-.06s0-.04-.02-.04c-.04-.02-.04.02-.02.04m-4.34-.11s-.06.02-.06.06c0,.02,0,.06.04.04.02,0,.04-.04.06-.06,0,0-.02-.04-.04-.04m.63-.02c.06-.04.08-.1.04-.17-.02.06-.08.1-.04.17m-.66-.45c-.02.08-.02.13.02.19.02-.08.06-.11-.02-.19m.2-1.48c-.04.06-.04.11,0,.17.04-.06.04-.11,0-.17m-2.39-2.03c-.04.06-.04.09,0,.15.04-.06,0-.1,0-.15m2.9,3.49c.06.04.04.1.04.13.02.53.04,1.04.04,1.55v2.69c0,.06-.02.15.06.17.1.06.08-.06.11-.09.04-.02.08-.02.11-.02.25-.06.47-.11.72-.13.21,0,.26-.13.26-.27,0-.55.11-1.08.1-1.61-.04-.97-.06-1.93-.06-2.9,0-.34-.04-.68-.08-1.02-.06-.51-.23-1-.11-1.52.08-.38-.13-.66-.3-.97-.04-.08-.11-.11-.17-.13l-.61-.06c-.08,0-.09.04-.11.13,0,.3-.06.61-.02.93.04.3.07.62-.02.95,0,.04-.02.08,0,.11.17.26.08.53.06.81-.02.21-.1.42.02.64.02.02.02.09,0,.13-.11.15-.06.3-.04.46-.06.04-.06.08,0,.11.02-.04.02-.08,0-.11m-3.19-4.97c-.13.15-.04.36-.21.45.06-.51.02-.99.02-1.48,0-.3,0-.61.08-.91.06-.28.3-.38.55-.4.76-.08,1.5-.28,2.26-.21.59.08,1.16.02,1.73,0,.72-.02,1.38.13,1.99.49.46.27.76.7.95,1.19l.28.8c.28.68.57,1.38.51,2.16-.04.32-.04.65,0,.97.15,1.55.08,3.13.08,4.68-.02.99-.13,1.97-.38,2.92-.09.38-.32.66-.57.97-.42.51-.91.87-1.52,1.12-.36.15-.72.25-1.1.25-.8.04-1.57.09-2.35.09-.57-.02-1.14-.04-1.69,0-.21,0-.36-.11-.55-.15-.09-.02-.13-.13-.11-.21.08-.64-.04-1.29-.02-1.95.02-.42-.04-.85-.08-1.29-.02-.21.04-.44.04-.66-.08-1.19-.02-2.39-.08-3.56-.04-.53-.06-1.04-.04-1.57.02-.51.04-1.04,0-1.57-.04-.38.04-.78.06-1.16,0-.06,0-.13.09-.1.06.04.06-.02.06-.04,0-.04,0-.06-.06-.08-.17-.04-.17-.09-.06-.23.11-.13.13-.32.11-.53m-10.74,12c-.04-.53-.09-1.12-.09-1.69,0-.61-.06-1.19-.11-1.8-.04-.38,0-.74.08-1.12.02-.06.02-.15.02-.21-.08-1.06.1-2.1.06-3.17-.02-.68-.04-1.38-.09-2.07-.04-.38,0-.74.08-1.1.06-.42.06-.87-.02-1.29-.06-.51-.08-1.02.02-1.53.04-.19.17-.27.28-.27.25.02.44-.09.66-.17.23-.06.47.02.7-.02.13-.04.42,0,.72-.02.3-.02.62,0,.95.04.08.02.19.08.21.21.13.62.25,1.25.13,1.9-.04.23-.06.47-.02.7.04.28.02.59-.04.89-.11.61,0,1.19.08,1.8.1.83.11,1.65.04,2.48-.04.61,0,1.23-.04,1.84-.02.47-.06.95-.08,1.4-.02.44.19.66.61.64.63-.02,1.23.04,1.84-.06.15-.04.28.02.44.04.44.02.87-.02,1.31-.06.28-.04.55,0,.82.13.09.08.23.1.36.04.11-.06.26.04.28.13.04.28.15.57.21.85.08.45.06.7-.06,1.16-.09.36-.09.72-.21,1.08-.02.11-.04.17-.17.15-.34-.04-.7.04-1.04.09-.46.09-.93.08-1.38,0-.36-.06-.72-.04-1.08-.02-.85.04-1.71-.11-2.54-.11-.57.02-1.14,0-1.71,0-.23.02-.42-.02-.63-.09-.06-.04-.13-.06-.17-.08-.11-.06-.27.06-.34-.08-.08-.13-.08-.32-.08-.47,0-.06,0-.1.02-.17m-7.43-5.25h1.23c.08,0,.13-.02.11-.11-.04-.23-.02-.49-.09-.7-.21-.65-.28-1.31-.32-1.99-.02-.15-.02-.32-.13-.51-.28,1.14-.34,2.26-.8,3.32m3.62-3.34s.04-.06.04-.1c.02-.04-.02-.06-.06-.04-.02,0-.02.04-.02.08,0,.02.02.04.04.06m-.06-.19c.06-.17,0-.25-.08-.34l.08.34Zm-6.04-2.22c.08-.08.08-.11.04-.17-.06.04-.04.1-.04.17m.11-.49c.06-.06.11-.1.06-.17-.04.04-.08.08-.06.17m7.13,12.4c-.06-.21-.13-.21-.25-.1-.09.11-.19.27-.38.11-.02-.02-.19.02-.29.04-.23.06-.47.15-.7.11-.25-.04-.49-.11-.74-.19-.08-.02-.08-.09-.09-.17-.28-.87-.3-1.78-.47-2.67-.02-.11-.04-.13-.13-.15-.55-.02-1.1-.06-1.65-.1-.23-.02-.47-.06-.72-.09-.1,0-.15.02-.17.15-.15.59-.28,1.16-.51,1.72-.11.28-.11.63-.25.93-.09.21-.3.28-.53.32-.27.04-.53-.09-.78-.04-.21.06-.38.08-.57.02-.25-.08-.44.13-.66.1-.23-.04-.44.04-.64.04-.17-.02-.32-.38-.28-.53.06-.3.13-.59.21-.89.04-.15.21-.25.25-.42.09-.36.21-.7.28-1.04.02-.13-.08-.3,0-.44.3-.51.36-1.1.61-1.63.07-.15.21-.34.06-.57-.04-.04.02-.19.06-.28.21-.38.32-.8.42-1.19.06-.19,0-.42.08-.61.15-.36.15-.74.25-1.12.09-.38.23-.76.28-1.14.09-.53.25-1.04.4-1.56.02-.06-.02-.15.11-.13.08.02.09-.06-.02-.17-.04-.02-.02-.06,0-.08.02-.13.04-.26.08-.4,0-.06,0-.17.11-.06.04.04.06-.08.04-.09-.21-.21-.02-.42.04-.57.32-.61.53-1.27.8-1.9.08-.15.04-.34.19-.47.06-.06.13-.15.21-.15.3-.02.61-.08.93.02.08.02.15.02.23-.02.15-.09.3.08.49.02.17-.06.38-.08.59-.04.15.04.3.15.49.08.06-.02.19.08.23.21.08.21.17.42.36.55.15.11.1.28.17.42.26.53.38,1.12.57,1.69.23.68.32,1.36.44,2.07.13.68.3,1.36.44,2.07.04.21,0,.45.1.64.13.27.17.53.09.81-.04.15.11.15.15.27.17.72.17,1.44.38,2.16.15.44.19.93.28,1.38s.21.89.26,1.35c.04.42.17.83.1,1.25-.1.44-.32.57-.7.34-.19-.11-.19-.02-.21.13m-16.89-4.17c-.7,1.16-.66,2.39-1.35,3.56-.08-.04-.13.21-.17.15-.13.17-.17,0-.27.19-.04.11-.13.15-.25.21-.27.11-1.19.17-1.5.23-.19.02-.4.04-.61-.08-.11-.06-.26-.11-.44-.04-.15.06-.32.02-.45-.13-.3-.3-.46-.66-.53-1.06-.11-.57-.28-1.14-.36-1.71-.07-.7-.23-1.38-.4-2.05-.11-.53-.27-1.04-.4-1.57-.19-.89-.38-1.78-.47-2.71-.04-.42.02-.25-.06-.66-.02-.66-.34-1.27-.44-1.93,0-.06-.02-.11-.02-.17.09-.42.04-.8-.04-1.18-.11-.51-.06-1.04-.11-1.57-.02-.19.17-.36.42-.38.4-.02.78-.11,1.16-.21.3-.06.87-.11,1.19-.09.66,0,.91.23,1.06.55.23.55.19,1.12.3,1.67.06.32.1.62.11.93.15.34.17.7.25,1.06.06.3.11.62.08.95.21.78.19.97.21,1.8.02.49.06.66.08,1.16.04.17,0,.06.06.17.09,0,.02.1.11-.06.19-.4.09-.13.23-.55.13-.4.25-.8.38-1.19.04-.11.08-.23.19-.28.11-.08.1-.23.11-.32.06-.21.17-.34.27-.53.1-.15.15-.3.19-.47.06-.25.11-.27.38-.27.11-.02.19-.11.34-.11.64-.04,1.08-.06,1.71,0,.11.02.17.13.3.13.51,0,.53,0,.64.53.06.21.27.8.34,1,.15.59.19,1.35.38,1.95.06-.17.11-.51.13-.68,0-.42.13-.83.27-1.12.21-.44.27-.89.36-1.37,0-.08.02-.15.06-.21.34-.68.19-1.25.44-1.97.15-.43.11-.89.34-1.29.17-.27.26-.53.36-.82.11-.42.68-.57,1.08-.55.29,0,.57.04.85-.04.11-.02.11.11.21.1.21-.02.4.04.61.04.17-.02.3.06.44.19.08.08.19.1.21.23.04.34.28.66.21,1.02-.13.32-.15.65-.3.95-.28.57-.38,1.17-.47,1.55-.02.06-.02.11-.06.17-.28.53-.23,1.12-.27,1.69-.08.32-.08.68-.19.99-.09.15-.09.34-.13.53-.09.36-.27.7-.4,1.04-.1.3-.15.63-.23.93-.11.59-.32,1.16-.51,1.71-.11.4-.15.8-.19,1.19-.04.21-.13.4-.27.55-.19.21-.28.47-.36.74-.08.34-.23.66-.34,1-.11.32-.38.49-.72.49h-.4c-.15,0-.32,0-.44.13-.08.08-.19.08-.28.04-.27-.09-.51-.15-.8-.09-.25.02-.49-.1-.7-.21-.11-.06-.1-.21-.11-.32-.06-.36-.23-.68-.36-1.02-.17-.42-.36-.83-.49-1.25-.13-.4-.21-.82-.17-1.25"/>
    <path class="cls-3" d="m110,26.67l5.49-4.54-.65-.79-1.93,1.6h-.01c.06-.21.07-.4.04-.57-.03-.18-.11-.34-.24-.5-.16-.19-.32-.31-.46-.36-.3-.1-.6-.07-.88.11-.15.1-.36.26-.64.49l-1.49,1.23c-.21.18-.38.33-.49.46-.11.13-.19.25-.24.37-.14.33-.07.66.2.99.08.1.16.17.24.23s.16.1.24.12c.08.03.17.04.25.05.09,0,.18.01.28.02l-.35.29.65.79Zm1.41-3.8c.12-.1.25-.16.39-.19.14-.02.27.04.39.19.09.11.13.24.11.38-.02.14-.09.26-.21.36l-1.52,1.26c-.14.12-.29.18-.44.18-.15,0-.27-.06-.37-.17-.11-.13-.14-.27-.1-.41.05-.14.15-.28.31-.41l1.43-1.19Zm-3.68-.92c-.22.2-.37.39-.46.57-.09.18-.12.35-.1.51.01.17.07.34.17.5.1.16.23.33.39.5l.71-.65c-.12-.16-.17-.28-.17-.38,0-.1.08-.21.22-.35l4.18-3.86-.69-.75-4.23,3.91Zm-1.16-1.39c-.15.15-.29.23-.44.24-.15.01-.28-.04-.41-.16-.12-.12-.17-.25-.15-.4.02-.15.09-.3.23-.43.19-.2.38-.27.56-.24.18.04.35.13.51.29.05.05.11.12.18.22l-.49.49Zm-.32,1.78l2.48-2.51c.19-.19.32-.38.41-.58.08-.2.12-.39.12-.58,0-.19-.05-.38-.14-.56-.09-.18-.21-.34-.36-.49-.17-.16-.34-.28-.53-.36-.19-.08-.38-.11-.56-.11-.4,0-.76.16-1.1.46l.7.69c.14-.1.28-.13.42-.12.14.01.26.07.35.16.14.13.19.27.17.4-.03.13-.1.26-.22.38l-.37.38s-.07-.08-.1-.11c-.03-.03-.06-.06-.08-.09s-.04-.06-.07-.08c-.03-.03-.05-.05-.08-.08-.23-.22-.44-.38-.64-.48s-.39-.13-.57-.12c-.19.02-.38.08-.57.2-.18.12-.38.29-.58.49-.2.2-.33.39-.41.56-.07.17-.1.33-.09.48,0,.15.05.28.11.4.06.11.14.21.22.3.18.17.35.27.51.3.17.03.36.02.59-.02h.01s-.36.38-.36.38l.73.72Zm-.05-7.05l-2.45,2.07h-.02s1.55-2.81,1.55-2.81l-.62-.5-2.42,2.1h-.02s1.49-2.86,1.49-2.86l-.84-.68-2.24,4.71.7.56,2.32-2h.02s-1.45,2.71-1.45,2.71l.7.56,4.11-3.2-.84-.68Zm-6.71,1.17l.54-.79-1.36-.93,3.23-1.79.46-.67-2.21-1.51-.51.74,1.26.86-3.26,1.84-.46.67,2.32,1.58Zm-3.68-2.38l1.48-2.62c.1-.18.22-.31.34-.4.13-.09.26-.15.39-.17.13-.03.26-.03.38,0,.13.03.24.07.33.12.09.05.17.12.24.21l.53-.94c-.25-.14-.5-.22-.72-.22-.23,0-.48.02-.75.08l.27-.47-.89-.5-2.5,4.41.89.5Zm-1.85-2.7c-.09.19-.2.31-.34.37-.14.06-.28.05-.44-.02-.15-.07-.24-.18-.27-.33-.03-.15,0-.31.08-.48.12-.25.27-.38.46-.41.19-.03.38,0,.58.1.07.03.15.08.24.15l-.3.62Zm.28,1.78l1.53-3.18c.12-.24.18-.47.19-.68.01-.21,0-.41-.07-.59-.07-.18-.17-.34-.31-.48-.14-.14-.3-.26-.5-.35-.21-.1-.42-.16-.62-.17-.2-.01-.39.01-.57.08-.37.13-.67.4-.89.79l.89.43c.1-.14.22-.22.36-.25.14-.03.27-.02.39.04.17.08.27.19.29.33s-.01.28-.09.44l-.23.48s-.09-.05-.13-.07c-.04-.02-.08-.04-.1-.06-.03-.02-.06-.04-.09-.06-.04-.02-.07-.03-.1-.05-.29-.14-.54-.22-.76-.25-.22-.03-.41,0-.58.07-.18.08-.34.2-.47.38-.14.18-.27.39-.39.65-.12.25-.19.47-.2.66-.01.19.01.35.07.48.06.14.14.25.23.34.1.09.2.16.31.21.22.11.42.14.58.11.17-.03.35-.1.55-.21h.02s-.22.48-.22.48l.92.44Zm-2.31-6.65l-1.66,2.75h-.02s.58-3.15.58-3.15l-.75-.28-1.62,2.76h-.02s.5-3.18.5-3.18l-1.01-.37-.62,5.17.85.31,1.56-2.63h.02s-.51,3.03-.51,3.03l.85.31,2.87-4.35-1.01-.37Zm-8.22,2.72l.84-3.3c.06-.22.13-.38.24-.48.1-.1.25-.12.43-.08.15.04.26.12.32.25.06.12.06.28.02.46l-.87,3.4.99.25.96-3.77c.06-.22.07-.41.06-.58-.02-.17-.07-.31-.14-.43-.07-.12-.16-.22-.28-.29-.11-.07-.23-.13-.35-.16-.23-.06-.43-.06-.6,0-.17.06-.33.16-.47.29h-.02s.63-2.47.63-2.47l-.99-.25-1.76,6.9.99.25Zm-3.03-4.16c.03-.19.09-.33.2-.41.1-.08.23-.11.38-.09.15.02.26.09.34.2.07.11.1.27.07.47l1.01.15c.07-.48,0-.88-.23-1.22-.11-.16-.25-.29-.43-.4-.18-.11-.38-.18-.61-.21-.32-.05-.6-.02-.83.08-.24.1-.44.25-.59.45-.09.12-.16.27-.22.43-.05.17-.09.35-.12.56l-.24,1.65c-.03.2-.05.39-.04.57,0,.18.03.33.08.48.09.24.23.44.43.6.2.16.46.27.78.32.23.03.44.03.64-.03.2-.05.37-.14.52-.26.31-.23.5-.57.56-1.01l-1.01-.15c-.03.11-.08.22-.16.32-.08.1-.21.14-.41.11-.15-.02-.27-.08-.34-.18-.08-.1-.1-.23-.08-.39l.3-2.05Zm-1.97-2.35c.03-.41-.1-.79-.39-1.13-.14-.16-.32-.3-.52-.4-.2-.11-.43-.17-.68-.19-.3-.02-.56.01-.78.1s-.41.21-.56.38c-.16.16-.28.36-.37.6-.09.24-.14.49-.16.75-.03.45.02.82.15,1.13.13.31.41.56.84.77l.71.35c.12.06.22.12.29.17.07.05.13.12.17.19.03.08.05.17.06.29,0,.12,0,.27-.01.46-.01.16-.03.3-.04.43-.02.13-.06.24-.12.33-.06.09-.14.16-.24.2-.1.04-.24.06-.41.05-.26-.02-.44-.1-.54-.26-.1-.16-.14-.33-.13-.51l.02-.32-1.02-.07-.03.38c-.02.24.01.46.09.67.08.21.19.4.33.56.14.16.32.3.53.4.21.1.43.16.68.17.33.02.61-.01.84-.1.23-.09.43-.23.58-.4.14-.17.26-.38.33-.64.08-.25.12-.53.14-.83.02-.26.02-.49,0-.7-.01-.2-.05-.39-.11-.55-.07-.16-.17-.3-.3-.43-.13-.12-.31-.24-.53-.34l-.76-.36c-.13-.06-.23-.12-.3-.18-.07-.06-.13-.12-.16-.2-.04-.07-.05-.16-.06-.25,0-.09,0-.21,0-.35,0-.12.03-.23.05-.34.03-.11.07-.2.13-.29.06-.08.13-.14.22-.18.09-.05.21-.07.34-.06.26.02.44.11.54.29.1.18.14.38.12.62v.23s1,.07,1,.07l.03-.5Zm-10.58,5.53l-.23-3.4c-.01-.23.01-.4.07-.53.07-.12.19-.19.39-.21.16-.01.29.03.38.13.09.1.15.24.16.43l.24,3.5,1.02-.07-.23-3.4c-.01-.23,0-.4.07-.53.07-.12.19-.19.39-.21.16-.01.29.03.38.13.09.1.15.24.16.43l.24,3.5,1.02-.07-.26-3.88c-.01-.23-.06-.41-.14-.57-.08-.15-.17-.27-.28-.37-.11-.09-.24-.16-.37-.19-.14-.03-.27-.05-.39-.04-.27.02-.48.08-.63.19-.15.11-.28.24-.39.39-.1-.12-.23-.23-.38-.32-.15-.1-.34-.14-.56-.12-.23.02-.42.08-.56.19-.14.11-.26.25-.36.42h-.02s-.03-.49-.03-.49l-1.02.07.34,5.06,1.02-.07Zm-2.99-5.75l-.18-1-1,.18.18,1,1-.18Zm1.06,6.01l-.88-4.99-1.01.18.88,4.99,1.01-.18Zm-5.69,1.26l-.94-3.28c-.06-.22-.08-.4-.04-.53.04-.14.15-.23.33-.28.15-.04.29-.03.4.05.11.08.19.21.25.39l.97,3.37.98-.28-1.07-3.74c-.06-.22-.14-.39-.24-.53-.1-.13-.21-.24-.34-.3-.12-.07-.25-.11-.39-.11-.13,0-.26,0-.38.04-.22.06-.39.17-.51.31-.12.14-.2.3-.26.49h-.02s-.13-.47-.13-.47l-.98.28,1.4,4.87.98-.28Zm-4.87-2.06c-.07-.18-.08-.33-.03-.45.05-.12.15-.21.29-.26.14-.05.28-.05.39,0,.12.06.21.18.28.36l.2.54-.94.35-.2-.54Zm1.89-.72c-.16-.42-.41-.73-.77-.92-.17-.08-.36-.13-.57-.14-.2,0-.42.03-.64.11-.3.11-.53.27-.69.47-.16.2-.26.43-.3.68-.02.15-.02.31.02.48.04.17.09.36.16.55l.58,1.57c.07.19.15.37.24.52.09.15.19.28.3.38.19.16.41.27.67.32.26.05.53.01.83-.1.22-.08.4-.19.55-.33.15-.14.26-.3.34-.48.16-.35.16-.74,0-1.15l-.96.35c.03.11.03.23.01.36-.02.13-.12.23-.3.29-.14.05-.27.06-.39,0-.11-.05-.2-.15-.26-.3l-.24-.65,1.89-.7-.49-1.31Zm-5.68,2.55c-.09-.19-.13-.35-.11-.5.02-.15.1-.26.26-.34.14-.07.28-.07.41,0,.13.06.24.18.32.35l.86,1.77c.07.14.08.28.04.42-.04.14-.13.24-.26.3-.17.08-.32.09-.43.01-.12-.08-.21-.19-.28-.33l-.81-1.67Zm.83,4.05c.16.26.33.45.51.57.17.13.35.21.54.25.18.05.35.06.53.03.17-.03.33-.08.46-.14.24-.12.43-.26.56-.42.13-.17.23-.34.28-.53.05-.18.07-.36.04-.55-.03-.18-.08-.35-.15-.51l-2.48-5.12-.92.44.2.41c-.09-.04-.18-.07-.26-.1-.08-.03-.17-.05-.25-.06-.09,0-.18,0-.27,0-.09.02-.2.05-.31.11-.23.11-.38.23-.46.37-.17.27-.2.56-.1.88.06.17.17.41.33.74l.84,1.74c.12.25.23.45.33.59.1.14.2.24.3.32.29.22.63.23,1.01.04.18-.09.33-.21.43-.36.1-.15.17-.32.2-.52h.02s.44.89.44.89c.07.14.09.28.07.4s-.11.22-.26.3c-.16.08-.3.08-.43.03-.13-.06-.22-.14-.28-.24l-.92.45Zm-2.78.97l-1.76-2.92c-.12-.19-.17-.36-.17-.5,0-.14.08-.26.25-.36.14-.08.27-.1.4-.05.13.05.24.15.34.31l1.81,3.01.87-.53-2-3.33c-.12-.19-.24-.34-.37-.45-.13-.1-.27-.17-.4-.21-.14-.03-.27-.04-.4,0-.13.03-.25.07-.36.14-.2.12-.34.26-.41.43-.08.17-.12.34-.13.54h-.02s-.25-.41-.25-.41l-.88.53,2.61,4.35.88-.53Zm-5.05-3.97l-.58-.84-.84.58.58.84.84-.58Zm3.46,5.03l-2.87-4.18-.84.58,2.87,4.18.84-.58Zm-3.16,2.37l-2.14-2.65c-.14-.18-.22-.33-.24-.47-.02-.14.05-.27.2-.39.12-.1.25-.14.39-.11s.26.12.38.26l2.2,2.73.79-.64-2.44-3.03c-.14-.18-.29-.31-.43-.39-.15-.08-.29-.13-.43-.15-.14-.01-.27,0-.4.05-.13.05-.24.11-.34.19-.18.15-.3.31-.35.48-.05.17-.07.36-.05.55h-.02s-.31-.37-.31-.37l-.79.64,3.18,3.95.79-.64Zm-5.52-3.31l-.68-.76-.76.68.68.76.76-.68Zm4.08,4.54l-3.39-3.77-.76.68,3.39,3.77.76-.68Zm-3.14.89c.15.15.23.29.24.44.01.15-.04.28-.16.41-.12.12-.25.17-.4.15-.15-.02-.29-.09-.43-.23-.2-.19-.27-.38-.24-.56.03-.18.13-.35.28-.51.05-.05.12-.11.22-.18l.49.48Zm1.78.31l-2.52-2.47c-.19-.19-.39-.32-.58-.4-.2-.08-.39-.12-.58-.12-.19,0-.38.05-.56.14-.18.09-.34.21-.49.36-.16.17-.28.34-.36.53-.08.19-.11.37-.11.56,0,.4.16.76.46,1.1l.69-.71c-.1-.14-.14-.28-.12-.42.01-.14.07-.26.16-.35.14-.14.27-.19.4-.17.13.03.26.1.38.22l.38.37s-.08.07-.11.1c-.03.03-.06.06-.09.08-.03.02-.06.04-.08.07s-.05.06-.08.08c-.22.23-.38.44-.48.64-.09.2-.13.39-.12.57.02.19.09.38.21.57.12.19.29.38.49.58.2.2.39.33.56.41.18.07.34.1.48.09.15-.01.28-.05.4-.11.11-.06.21-.14.3-.22.17-.18.27-.35.29-.51.02-.17.02-.36-.02-.59h.01s.37.35.37.35l.71-.73Zm-3.23,3.41l-2.27-1.98c-.15-.14-.26-.28-.33-.42-.06-.14-.09-.28-.08-.42,0-.13.03-.26.08-.37.05-.12.12-.22.19-.3.07-.08.15-.15.25-.19l-.81-.71c-.19.22-.32.44-.37.66s-.07.47-.07.75l-.41-.35-.67.77,3.82,3.34.67-.77Zm-1.3,1.53l-4.84-3.81.73-.93-.75-.59-2.09,2.66.76.59.73-.93,4.84,3.81.63-.8Z"/>
    <path class="cls-3" d="m68.06,37.51s.04,0,.06.01c.29.27.28.61.34.98.39.54.59-1.46.94-1.65.66,1.18-.21,2.38-.07,3.58.28-.24.28-.78.39-1.08,0,.37-.06.85.09,1.24.02,0,.05,0,.07,0,.4-.9.51-1.93.79-2.88.01,0,.02,0,.04,0-.03.5-.17,1.03-.07,1.53.02,0,.03,0,.05,0,.37-.38.1-1.21.69-1.39v1.06s.04,0,.06,0c.17-.45.2-.94.33-1.44.08.22.1.44.21.59.16,0,.09.26.16.37.02,0,.04,0,.06,0,.38-.58.34-2.2.81-2.48.36,3.82.41,7.66-.17,11.47-.04.34-.09.24.22.38.28.07.25.48.59.46.6-.06,1.33-.5,1.23-1.21-.21-3.29-.34-6.56-.62-9.85.07.07.11.12.18.19.11-.54-.05-1.05.05-1.56.48.75.55,1.73.89,2.56.02,0,.04,0,.06-.01-.06-.52-.13-1.05-.19-1.56,1.19,1.01.77,1.88,1.29,3.05.22-.67-.08-1.45-.11-2.15.31.6,1.22,4.32,1.24,1.66.17.37.16.89.53,1.06.01-1.3-.71-2.57-1.1-3.8.65-.33.14-1.62-.32-1.98,1.02.42,1.5.64,1.67,1.79.04.12.13.22.27.19.35-.33-.1-1-.13-1.43l.04-.02c.37.46,1.79,2.9,1.84,1.09.07.22.87,1.1.82.46-.39-.86-1.08-1.52-1.62-2.28.22.01.36-.06.46-.26.44,1.87,1.07,1.71.51-.11.42.41,1.83,2.91,1.87,1.08.11.2.78,1.03.85.53-.26-.7-.81-1.23-1.18-1.87,1.06-.03-2.14-2.19-2.47-2.28-.29-.08-.57-.18-.88-.13-.19.03-.24-.03-.27-.22-.14-1.02-.69-.17-.61-1.52.43,0,.55.66.91.63.22-.23-.13-.58-.21-.83.36.23.7.46,1.07.7v-.52c.64.6,1.3,1.07,2.14,1.34-.69-.97-1.82-1.56-2.83-2.15-.89-.26-1.94-.34-2.27-1.37.54.19,1.07.38,1.61.56-1.14-1.07-3.69-1.59-3.38-3.55.09.3.03.65.25.93.1-.32.2-.62.3-.92-.12.46.24.74.36,1.18.19-.39.18-.73.1-1.14.01,0,.03-.01.05-.02.49.48.34,2.03,1.05,2.13.02-.2.03-.41.05-.65.1.17.12.37.32.5.05-.41-.11-.74-.17-1.11.57.24.54.98.97,1.35.01,0,.03-.02.04-.03.01-.35-.13-.68-.21-1.05.39.3.82.48,1.02.95.13.21.26.51.53.56.04-.27-.18-.5-.27-.75.02-.01.03-.03.05-.04.39.32.67.99,1.24.95.45-.12.03-.43-.19-.56-1.12-.89-2.11-1.88-2.88-3.09-.47-.73-1.44-.51-1.35-1.6.27.24.51.46.76.68.11-.09.21-.18.33-.28.18.4.28.84.76.99v-.64s.03-.01.04-.02c.29.36.47.84.99.91-.19-.38-.37-.74-.55-1.1.33.3.69,1.01,1.22.71-.18-1.06-1.11-1.41-1.99-1.83-1.13-.49-1.76-1.62-2.62-2.45-.4-.4-.25-.91-.38-1.45,1.31.69.36,1.65,2.18,1.1-.18-.31-.35-.59-.53-.89.53.1.96.45,1.5.42-.51-.58-1.22-.91-1.79-1.4-.7-.81-1.31-1.7-1.97-2.55-.41-.95-.49-2.02-.81-3.01-.55,1.76-.4,3.84-2.17,4.95-.34.26-.78.39-1.14.62-.48.35-.78,1.04-1.46.99-.81.46.78.17,1.03.06-.2.29-.38.54-.58.81.6-.12.88-.61,1.32-.94-.1.37-.19.7-.29,1.06.69-.06.76-.84,1.13-1.28.4,1.05.21.87,1.31.73-.26.84-2.27,2.11-3.14,2.41-.91.15-1.49.73-2.03,1.44-.08.09-.06.18,0,.25.31.18.54-.25.77-.43-.14.3-.37.51-.38.82.61-.04.78-.79,1.43-.86-.16.38-.31.73-.46,1.09.64-.11.77-.79,1.25-1.12.37.24-.1.62-.16.93.41-.41.81-.68,1.41-.67,0,.02.01.03.02.05-.23.33-.54.62-.53,1.01-.45.46-1.03.54-1.61.77-.49.15-.94.55-1.43.62-.48-.28-1.91.19-.81.55-.53.38-1.29.92-1.27,1.61.43.15.6-.44.91-.69,0,.13.02.21.04.33.41-.09.6-.54.9-.81,0,0,.01,0,.02.02-.07.36-.15.72-.22,1.11.49-.25.5-.81.76-1.24.02,0,.04,0,.06.01v1.06s.03,0,.05,0c.12-.34.25-.68.38-1.04.1.69.53.81.54.03.02-.23.31-.31.48-.47.14.29.28.56.42.85.13-.35.63-1.39,1-.82.04.08,0,.15-.09.19-.4.18-.62.51-.77.9-.03.15.02.27-.17.3-1.4.5-2.94.97-4.04,2.02-.18.31-1.8,1.84-1.09,1.9.21-.06.32-.22.41-.4.1-.28.42-.39.62-.59,0,0,.01.01.02.02-.12.38-.24.77-.37,1.15.01,0,.03.01.04.02.55-.47.57-1.31,1.24-1.62-.02.45-.04.88-.06,1.34.77-.61.31-1.53,1.4-1.65.04.8-.78.95-1.1,1.56-.41.34-1.05.52-1.13,1.16-.12.14-.41.09-.57.18-.26.13-.88.78-.33.84-.53.78-1.13,1.58-1.44,2.48.15.5.74-.46.83-.68-.01.25-.06.53.2.66.82.02.97-1.37,1.55-1.85,0,.44-.31,1.07-.03,1.42.21,0,.3-.22.33-.41.01-1.11.66-1.22,1.45-1.78-.05.37-.18.72-.13,1.1,2.62-4.71-.09,2.12,2.78-2.57.66.11,1.36.42.39.86-.37.13-.14.6-.45.77-.1.05-.13.12-.16.22-.1.42-.55.57-.83.86-.38.35-.99.39-1.1.98-.35.7-1.41.46-1.8,1.2-.45.63-.94,1.24-1.55,1.73-.24.11-.76,1.31-.3,1.12.5-.3.79-.8,1.09-1.29.14-.17.36-.02.56-.01-.39.56-.94,1.04-1.12,1.7.01.01.03.02.04.03.95-.38,1.22-1.54,2.12-1.93-.15.56-.56,1.1-.47,1.67.33-.11.43-.57.56-.83-.02.2-.05,1.39.32.72.11-.38.12-.78.29-1.14"/>
  </g>
</svg>