<svg width="992" height="748" viewBox="0 0 992 748" fill="none" xmlns="http://www.w3.org/2000/svg">
<g filter="url(#filter0_d_133_83)">
<path d="M214.381 482.487C211.131 487.856 211.308 493.579 208.142 499.037C207.789 498.86 207.53 500.008 207.353 499.743C206.737 500.537 206.561 499.743 206.12 500.625C205.944 501.15 205.509 501.327 204.98 501.591C203.752 502.121 199.445 502.386 198.041 502.646C197.16 502.734 196.196 502.822 195.227 502.298C194.699 502.033 193.999 501.768 193.206 502.121C192.501 502.386 191.713 502.209 191.097 501.503C189.692 500.096 188.988 498.424 188.635 496.575C188.111 493.932 187.319 491.289 186.967 488.651C186.619 485.39 185.914 482.222 185.122 479.143C184.598 476.676 183.893 474.298 183.277 471.836C182.401 467.698 181.52 463.559 181.079 459.244C180.908 457.307 181.167 458.101 180.82 456.164C180.732 453.08 179.234 450.265 178.799 447.181C178.799 446.921 178.711 446.656 178.711 446.391C179.146 444.454 178.887 442.694 178.535 440.934C178.006 438.555 178.27 436.089 178.006 433.627C177.918 432.745 178.799 431.95 179.939 431.862C181.784 431.774 183.541 431.337 185.298 430.896C186.702 430.631 189.34 430.366 190.833 430.455C193.911 430.455 195.051 431.514 195.755 433.009C196.808 435.564 196.632 438.202 197.16 440.757C197.424 442.253 197.6 443.66 197.688 445.072C198.388 446.656 198.476 448.328 198.829 450C199.093 451.408 199.357 452.904 199.181 454.404C200.145 458.013 200.062 458.891 200.145 462.765C200.233 465.055 200.409 465.849 200.498 468.134C200.674 468.928 200.498 468.399 200.762 468.928C201.202 468.928 200.85 469.37 201.29 468.664C202.166 466.815 201.731 468.051 202.342 466.114C202.959 464.265 203.487 462.412 204.099 460.563C204.276 460.038 204.452 459.509 204.98 459.244C205.509 458.891 205.42 458.189 205.509 457.748C205.773 456.777 206.297 456.164 206.737 455.282C207.177 454.58 207.442 453.874 207.618 453.08C207.877 451.937 208.142 451.849 209.375 451.849C209.898 451.761 210.251 451.32 210.955 451.32C213.941 451.143 215.962 451.055 218.863 451.32C219.387 451.408 219.651 451.937 220.268 451.937C222.641 451.937 222.729 451.937 223.253 454.404C223.518 455.37 224.486 458.101 224.839 459.067C225.539 461.799 225.715 465.319 226.595 468.134C226.855 467.345 227.119 465.761 227.207 464.966C227.207 463.029 227.824 461.093 228.44 459.773C229.405 457.748 229.669 455.635 230.109 453.433C230.109 453.08 230.197 452.732 230.373 452.467C231.954 449.294 231.25 446.656 232.395 443.307C233.094 441.287 232.918 439.173 233.975 437.325C234.763 436.089 235.204 434.858 235.644 433.539C236.172 431.602 238.805 430.896 240.65 430.984C241.971 430.984 243.288 431.161 244.604 430.808C245.133 430.719 245.133 431.337 245.573 431.249C246.537 431.161 247.418 431.426 248.382 431.426C249.175 431.337 249.787 431.69 250.403 432.303C250.756 432.656 251.284 432.745 251.372 433.362C251.548 434.946 252.689 436.442 252.336 438.114C251.72 439.61 251.632 441.11 250.932 442.518C249.615 445.161 249.175 447.975 248.735 449.736C248.647 450 248.647 450.265 248.47 450.53C247.154 452.992 247.418 455.723 247.242 458.366C246.89 459.862 246.89 461.534 246.361 462.941C245.921 463.647 245.921 464.525 245.749 465.408C245.309 467.08 244.516 468.664 243.904 470.248C243.464 471.66 243.2 473.155 242.848 474.563C242.319 477.294 241.355 479.932 240.474 482.487C239.95 484.336 239.774 486.184 239.598 488.033C239.422 489.004 238.982 489.882 238.365 490.588C237.489 491.554 237.049 492.789 236.696 494.02C236.349 495.604 235.644 497.1 235.116 498.688C234.587 500.184 233.359 500.974 231.778 500.974H229.933C229.228 500.974 228.44 500.974 227.912 501.591C227.56 501.944 227.031 501.944 226.595 501.768C225.362 501.327 224.222 501.062 222.906 501.327C221.761 501.415 220.62 500.885 219.651 500.361C219.128 500.096 219.211 499.39 219.128 498.86C218.863 497.188 218.071 495.692 217.454 494.109C216.666 492.172 215.785 490.235 215.174 488.298C214.557 486.449 214.205 484.512 214.381 482.487ZM292.665 501.856C292.401 500.885 292.049 500.885 291.525 501.415C291.085 501.944 290.644 502.646 289.768 501.944C289.68 501.856 288.887 502.033 288.447 502.121C287.395 502.386 286.25 502.822 285.198 502.646C284.057 502.474 282.912 502.121 281.772 501.768C281.42 501.68 281.42 501.327 281.332 500.974C280.015 496.923 279.927 492.701 279.134 488.563C279.046 488.033 278.958 487.945 278.518 487.856C275.973 487.768 273.423 487.592 270.874 487.415C269.822 487.327 268.681 487.155 267.536 486.979C267.096 486.979 266.836 487.067 266.748 487.68C266.044 490.411 265.427 493.049 264.375 495.692C263.846 497.012 263.846 498.6 263.23 500.008C262.794 500.974 261.825 501.327 260.773 501.503C259.54 501.68 258.312 501.062 257.171 501.327C256.202 501.591 255.414 501.68 254.534 501.415C253.393 501.062 252.513 502.033 251.46 501.856C250.403 501.68 249.439 502.033 248.47 502.033C247.682 501.944 246.978 500.272 247.154 499.566C247.418 498.159 247.77 496.84 248.118 495.428C248.294 494.726 249.087 494.285 249.263 493.491C249.703 491.819 250.227 490.235 250.58 488.651C250.668 488.033 250.227 487.243 250.58 486.626C251.984 484.247 252.248 481.521 253.393 479.054C253.741 478.348 254.358 477.47 253.653 476.411C253.481 476.235 253.741 475.534 253.917 475.092C254.886 473.332 255.414 471.395 255.85 469.546C256.114 468.664 255.85 467.609 256.202 466.727C256.907 465.055 256.907 463.294 257.347 461.534C257.783 459.773 258.4 458.013 258.664 456.253C259.104 453.786 259.804 451.408 260.509 449.03C260.597 448.77 260.421 448.328 261.037 448.417C261.385 448.505 261.473 448.152 260.949 447.622C260.773 447.534 260.861 447.358 260.949 447.269C261.037 446.656 261.125 446.038 261.297 445.421C261.297 445.16 261.297 444.631 261.825 445.16C262.001 445.332 262.09 444.807 262.001 444.719C261.037 443.748 261.913 442.782 262.178 442.076C263.67 439.261 264.639 436.177 265.868 433.274C266.22 432.568 266.044 431.69 266.748 431.072C267.008 430.808 267.36 430.366 267.712 430.366C269.117 430.278 270.526 430.013 272.019 430.455C272.371 430.543 272.719 430.543 273.071 430.366C273.776 429.925 274.48 430.719 275.356 430.455C276.149 430.19 277.113 430.102 278.082 430.278C278.782 430.455 279.487 430.984 280.363 430.631C280.627 430.543 281.243 430.984 281.42 431.602C281.772 432.568 282.212 433.539 283.088 434.152C283.793 434.682 283.529 435.476 283.881 436.089C285.11 438.555 285.638 441.287 286.514 443.925C287.571 447.093 288.007 450.265 288.535 453.521C289.152 456.689 289.94 459.862 290.556 463.118C290.732 464.089 290.556 465.231 290.997 466.114C291.613 467.345 291.789 468.575 291.437 469.899C291.261 470.601 291.961 470.601 292.137 471.13C292.93 474.475 292.93 477.819 293.894 481.168C294.598 483.193 294.775 485.478 295.215 487.592C295.655 489.705 296.179 491.73 296.443 493.844C296.619 495.781 297.236 497.718 296.884 499.655C296.443 501.68 295.391 502.298 293.634 501.238C292.753 500.709 292.753 501.15 292.665 501.856ZM259.596 444.278C259.86 444.013 260.124 443.837 259.86 443.484C259.684 443.66 259.508 443.837 259.596 444.278ZM259.067 446.568C259.42 446.215 259.42 446.038 259.243 445.774C258.979 445.95 259.067 446.215 259.067 446.568ZM287.056 456.866C287.321 456.076 287.056 455.723 286.704 455.282L287.056 456.866ZM287.321 457.748C287.409 457.572 287.497 457.483 287.497 457.307C287.585 457.13 287.409 457.042 287.233 457.13C287.145 457.13 287.144 457.307 287.144 457.483C287.144 457.572 287.233 457.66 287.321 457.748ZM270.526 473.244H276.237C276.585 473.244 276.849 473.155 276.761 472.714C276.585 471.66 276.673 470.424 276.325 469.458C275.356 466.462 275.004 463.382 274.828 460.215C274.74 459.509 274.74 458.714 274.216 457.836C272.895 463.118 272.635 468.311 270.526 473.244ZM304.954 497.629C304.783 495.163 304.518 492.436 304.518 489.793C304.518 486.979 304.254 484.247 303.99 481.433C303.814 479.668 303.99 477.995 304.342 476.235C304.43 475.97 304.43 475.534 304.43 475.269C304.078 470.336 304.871 465.496 304.695 460.563C304.606 457.395 304.518 454.139 304.254 450.967C304.078 449.206 304.254 447.534 304.606 445.862C304.871 443.925 304.871 441.812 304.518 439.875C304.254 437.496 304.166 435.123 304.606 432.745C304.783 431.862 305.394 431.514 305.923 431.514C307.063 431.602 307.944 431.072 308.996 430.719C310.053 430.455 311.194 430.808 312.25 430.631C312.862 430.455 314.183 430.631 315.588 430.543C316.993 430.455 318.485 430.543 319.982 430.719C320.33 430.808 320.859 431.072 320.947 431.69C321.563 434.593 322.092 437.496 321.563 440.492C321.387 441.547 321.299 442.694 321.475 443.748C321.651 445.072 321.563 446.48 321.299 447.887C320.77 450.707 321.299 453.433 321.651 456.253C322.092 460.126 322.175 463.912 321.827 467.786C321.651 470.601 321.827 473.508 321.651 476.323C321.563 478.525 321.387 480.727 321.299 482.84C321.211 484.865 322.175 485.92 324.108 485.831C327.01 485.743 329.819 486.008 332.633 485.567C333.337 485.39 333.949 485.655 334.654 485.743C336.675 485.831 338.696 485.655 340.717 485.478C342.034 485.306 343.262 485.478 344.495 486.096C344.935 486.449 345.547 486.537 346.164 486.273C346.692 486.008 347.392 486.449 347.48 486.89C347.656 488.21 348.185 489.529 348.449 490.852C348.801 492.966 348.713 494.109 348.185 496.222C347.745 497.894 347.745 499.566 347.216 501.238C347.128 501.768 347.04 502.033 346.428 501.944C344.847 501.768 343.174 502.121 341.593 502.386C339.484 502.822 337.291 502.734 335.182 502.386C333.513 502.121 331.84 502.209 330.171 502.298C326.217 502.474 322.263 501.768 318.397 501.768C315.764 501.856 313.127 501.768 310.494 501.768C309.437 501.856 308.561 501.68 307.592 501.327C307.327 501.15 306.975 501.062 306.804 500.974C306.275 500.709 305.571 501.238 305.218 500.625C304.871 500.008 304.871 499.125 304.871 498.424C304.871 498.159 304.871 497.982 304.954 497.629ZM354.753 441.9C354.142 442.606 354.577 443.572 353.789 444.013C354.053 441.635 353.877 439.433 353.877 437.148C353.877 435.736 353.877 434.329 354.23 432.921C354.489 431.602 355.634 431.161 356.774 431.072C360.288 430.719 363.718 429.753 367.232 430.102C369.953 430.455 372.591 430.19 375.228 430.102C378.566 430.013 381.639 430.719 384.453 432.392C386.562 433.627 387.967 435.648 388.848 437.938L390.164 441.635C391.481 444.807 392.797 448.064 392.537 451.673C392.361 453.168 392.361 454.669 392.537 456.164C393.237 463.382 392.885 470.689 392.885 477.907C392.797 482.487 392.273 487.067 391.128 491.466C390.693 493.226 389.636 494.55 388.495 495.957C386.562 498.335 384.277 500.008 381.463 501.15C379.794 501.856 378.126 502.298 376.369 502.298C372.679 502.474 369.077 502.734 365.475 502.734C362.838 502.646 360.205 502.562 357.655 502.734C356.686 502.734 355.986 502.209 355.106 502.033C354.665 501.944 354.489 501.415 354.577 501.062C354.93 498.071 354.406 495.075 354.489 491.995C354.577 490.058 354.318 488.033 354.142 486.008C354.053 485.042 354.318 483.983 354.318 482.928C353.965 477.382 354.23 471.836 353.965 466.374C353.789 463.912 353.701 461.534 353.789 459.067C353.877 456.689 353.965 454.227 353.789 451.761C353.613 450 353.965 448.152 354.053 446.391C354.053 446.127 354.053 445.774 354.489 445.95C354.753 446.127 354.753 445.862 354.753 445.774C354.753 445.597 354.753 445.509 354.489 445.421C353.701 445.244 353.701 444.984 354.23 444.366C354.753 443.748 354.841 442.871 354.753 441.9ZM369.517 464.966C369.777 465.143 369.694 465.408 369.694 465.584C369.777 468.051 369.865 470.424 369.865 472.802V485.306C369.865 485.567 369.777 486.008 370.129 486.096C370.57 486.361 370.482 485.831 370.658 485.655C370.834 485.567 371.01 485.567 371.186 485.567C372.327 485.306 373.383 485.042 374.524 484.953C375.488 484.953 375.752 484.336 375.752 483.718C375.752 481.168 376.281 478.701 376.193 476.235C376.016 471.748 375.928 467.256 375.928 462.765C375.928 461.181 375.752 459.597 375.576 458.013C375.316 455.635 374.524 453.345 375.052 450.967C375.405 449.206 374.436 447.887 373.643 446.48C373.472 446.127 373.119 445.95 372.855 445.862L370.041 445.597C369.694 445.597 369.606 445.774 369.517 446.215C369.517 447.622 369.253 449.03 369.429 450.53C369.606 451.937 369.777 453.433 369.341 454.929C369.341 455.105 369.253 455.282 369.341 455.458C370.129 456.689 369.694 457.925 369.606 459.244C369.517 460.215 369.165 461.181 369.694 462.24C369.777 462.328 369.777 462.676 369.694 462.853C369.165 463.559 369.429 464.265 369.517 464.966C369.253 465.143 369.253 465.319 369.517 465.496C369.606 465.319 369.606 465.143 369.517 464.966ZM356.056 448.77C355.88 449.03 355.88 449.206 356.056 449.471C356.232 449.206 356.056 449.03 356.056 448.77ZM367.112 458.189C366.936 458.454 366.936 458.714 367.112 458.979C367.288 458.714 367.288 458.454 367.112 458.189ZM366.175 465.055C366.087 465.408 366.087 465.672 366.263 465.937C366.351 465.584 366.528 465.408 366.175 465.055ZM369.253 467.168C369.517 466.992 369.606 466.727 369.429 466.374C369.341 466.639 369.077 466.815 369.253 467.168ZM366.351 467.256C366.175 467.256 366.087 467.345 366.087 467.521C366.087 467.609 366.087 467.786 366.263 467.698C366.351 467.698 366.439 467.521 366.528 467.433C366.528 467.433 366.44 467.256 366.351 467.256ZM386.474 467.786C386.474 467.874 386.562 467.962 386.65 468.051V467.786C386.65 467.698 386.65 467.609 386.562 467.609C386.386 467.521 386.386 467.698 386.474 467.786ZM366.44 471.483C366.44 471.395 366.351 471.307 366.263 471.218C366.087 471.218 366.175 471.395 366.087 471.483C366.087 471.571 366.175 471.748 366.263 471.748C366.439 471.748 366.44 471.571 366.44 471.483ZM369.341 480.462C369.165 480.462 369.165 480.55 369.165 480.638C369.165 480.727 369.165 480.903 369.341 480.815C369.341 480.727 369.429 480.638 369.429 480.55L369.341 480.462ZM408.794 445.072C406.773 445.072 404.752 445.509 402.731 445.16C400.01 444.719 399.57 444.278 398.953 441.723C398.429 439.698 398.429 437.673 398.865 435.648C399.041 435.123 398.865 434.417 398.953 433.887C399.217 432.215 400.01 431.514 402.383 431.514C405.104 431.426 407.83 430.984 410.551 430.984C414.681 430.896 418.811 430.366 422.942 430.455C427.16 430.631 431.374 430.631 435.592 430.631C437.349 430.631 439.194 430.366 440.951 431.161C441.391 431.426 441.479 431.514 441.479 432.039C441.567 433.186 441.391 434.24 441.567 435.388C441.655 435.564 441.831 435.648 441.655 435.824C440.691 437.236 441.479 438.908 440.951 440.316C440.863 440.492 440.863 440.757 441.039 440.845C441.919 441.37 441.391 442.165 441.391 442.782C441.391 444.19 440.339 444.366 439.37 444.631C438.23 444.896 437.173 444.984 436.032 444.984C434.276 444.896 432.519 444.984 430.762 445.072C429.969 445.072 429.269 445.16 428.565 445.072C426.984 445.072 426.896 445.072 426.896 446.568C426.984 448.77 426.896 450.967 427.16 453.168C427.336 454.929 427.336 456.689 427.072 458.454C426.72 461.093 426.808 463.824 426.808 466.462C426.808 469.635 426.544 472.714 426.103 475.882C425.927 477.382 426.367 478.878 426.455 480.374C426.544 482.752 426.455 485.13 426.544 487.592C426.544 488.474 426.632 489.264 426.72 490.146C427.16 493.579 426.808 497.012 426.367 500.361C426.279 501.415 425.403 502.298 424.17 502.386L421.097 502.646C419.78 502.822 418.547 502.298 417.231 502.386C416.702 502.386 416.174 502.298 415.65 502.386C414.417 502.474 413.189 502.033 412.136 501.503C411.872 501.327 411.784 500.709 411.784 500.361C411.696 498.247 411.168 496.134 411.344 494.02C411.784 489.882 411.608 485.743 411.872 481.604C412.048 479.407 411.696 477.206 411.872 475.004C412.048 471.748 411.696 468.575 411.96 465.319V465.055C411.168 461.357 412.048 457.66 411.432 454.051C410.903 451.496 411.432 449.03 411.784 446.48C411.96 445.161 411.872 445.072 410.463 445.072H408.794ZM464.953 482.575C465.041 486.714 464.689 490.588 464.337 494.462C464.077 496.575 464.249 498.772 463.637 500.797C463.285 501.768 462.844 502.298 461.792 502.121C459.154 501.768 456.517 501.944 453.884 502.121C453.267 502.121 452.739 501.856 452.215 502.298C451.863 502.646 451.775 502.033 451.422 501.944C449.93 501.768 449.225 500.885 449.225 499.39C449.225 498.071 449.049 496.663 449.313 495.428C449.842 492.701 449.401 489.882 449.93 487.067C450.106 486.096 450.194 484.953 450.018 483.983C449.665 480.903 450.194 477.907 450.018 474.828C449.842 470.071 449.754 465.408 449.665 460.651C449.665 457.307 449.577 453.963 449.313 450.707C449.137 447.622 449.665 444.543 449.665 441.459C449.665 439.963 449.313 438.555 449.313 437.148C449.313 436.089 449.049 435.035 449.489 434.064C449.754 433.539 449.665 433.009 449.842 432.392C450.282 431.072 451.598 429.925 453.003 430.013C453.62 430.102 454.324 429.925 454.936 429.925C455.905 429.842 456.869 429.925 457.838 430.013C460.471 430.102 463.196 430.013 465.834 429.489C466.974 429.312 468.291 429.4 469.524 429.577C470.84 429.753 472.157 429.753 473.478 430.102C476.551 430.984 479.365 432.303 481.034 435.388C482.527 438.114 482.791 441.022 483.227 443.837C483.843 447.446 483.755 451.055 483.667 454.669C483.667 455.105 483.667 455.547 483.755 455.9C484.107 457.042 484.107 458.189 483.843 459.332C483.579 460.563 483.491 461.887 483.227 463.118C482.967 464.702 482.174 466.025 480.858 467.08C479.801 467.962 478.837 469.105 477.432 469.546C477.08 469.723 476.992 469.899 477.168 470.248C477.344 470.601 477.516 471.042 477.78 471.483C478.572 472.979 478.925 474.475 479.189 476.147C479.625 478.613 480.329 480.991 481.034 483.37C481.646 485.218 481.822 487.067 481.998 488.827C482.438 491.642 482.527 494.373 483.143 497.1C483.491 498.6 483.755 500.096 483.055 501.591C482.791 502.209 482.438 502.562 481.734 502.386C481.122 502.209 480.594 502.646 480.065 502.562C478.749 502.298 477.432 502.822 476.287 502.646C475.235 502.386 474.002 503.175 473.126 502.209C472.157 502.734 471.281 502.298 470.4 502.209C468.731 502.121 468.819 502.121 468.555 500.449C468.115 498.424 467.679 496.398 467.151 494.462C466.358 491.554 465.746 488.651 465.746 485.655C465.658 484.689 465.57 483.718 464.953 482.575ZM462.636 450.618V455.988C462.636 456.517 462.9 456.689 463.428 456.689C464.216 456.689 465.009 456.517 465.797 456.429C466.325 456.341 466.59 455.988 466.59 455.458C466.942 452.114 467.03 448.77 466.061 445.421C465.885 445.16 465.797 444.896 465.361 444.896C464.745 444.984 464.128 444.896 463.516 444.719C462.724 444.631 462.548 444.984 462.548 445.685C462.636 447.358 462.636 448.946 462.636 450.618ZM511.906 462.588C511.906 462.24 511.995 461.975 511.995 461.71C512.078 461.534 512.078 461.622 512.166 461.71C512.43 462.24 512.43 462.765 512.43 463.294C512.254 468.487 512.606 473.685 512.783 478.878C512.871 482.046 512.43 485.218 512.694 488.474C512.959 491.466 512.518 494.55 512.606 497.541C512.694 498.86 512.078 500.184 511.818 501.415C511.73 501.768 511.466 502.033 511.026 502.121C509.445 502.298 507.776 502.822 506.284 502.646C504.522 502.474 502.677 502.822 500.92 502.121C500.396 501.856 499.956 502.562 499.34 502.562C498.463 502.562 497.759 502.121 496.878 501.944C496.53 501.856 496.09 501.503 496.002 501.062C495.562 497.806 495.562 494.638 496.09 491.377C496.354 490.058 496.53 488.739 495.914 487.415C495.474 486.449 495.826 485.39 495.738 484.336C495.738 481.168 495.474 478.084 495.385 474.916C495.121 470.512 494.945 466.114 495.209 461.71C495.385 459.597 495.121 457.395 495.121 455.282C495.209 452.29 495.474 449.294 495.562 446.303C495.562 443.484 495.385 440.669 495.826 437.938C496.09 436.089 496.178 434.24 496.354 432.392C496.53 431.072 497.759 430.366 498.811 429.842C500.832 428.783 502.941 429.136 505.051 430.013C505.667 430.278 506.284 430.366 506.895 430.013C507.512 429.665 508.04 429.665 508.476 430.19C508.917 430.631 509.709 429.925 509.973 430.543C510.497 432.127 511.29 433.711 511.466 435.388C511.818 437.938 511.818 440.492 511.466 443.047C511.202 445.862 511.995 448.593 512.254 451.32C512.43 452.992 512.342 454.669 512.078 456.341C511.906 457.66 511.466 459.067 511.642 460.303C511.73 461.093 511.202 461.887 511.906 462.588ZM567.083 501.856C566.819 500.885 566.466 500.885 565.938 501.415C565.498 501.944 565.062 502.646 564.181 501.944C564.093 501.856 563.305 502.033 562.865 502.121C561.808 502.386 560.667 502.822 559.61 502.646C558.47 502.474 557.33 502.121 556.185 501.768C555.833 501.68 555.833 501.327 555.749 500.974C554.428 496.923 554.34 492.701 553.552 488.563C553.464 488.033 553.376 487.945 552.935 487.856C550.386 487.768 547.841 487.592 545.291 487.415C544.239 487.327 543.094 487.155 541.954 486.979C541.513 486.979 541.249 487.067 541.161 487.68C540.461 490.411 539.845 493.049 538.788 495.692C538.264 497.012 538.264 498.6 537.647 500.008C537.207 500.974 536.243 501.327 535.186 501.503C533.958 501.68 532.729 501.062 531.584 501.327C530.62 501.591 529.827 501.68 528.951 501.415C527.806 501.062 526.93 502.033 525.873 501.856C524.821 501.68 523.852 502.033 522.888 502.033C522.095 501.944 521.391 500.272 521.567 499.566C521.831 498.159 522.183 496.84 522.536 495.428C522.712 494.726 523.5 494.285 523.676 493.491C524.116 491.819 524.645 490.235 524.997 488.651C525.085 488.033 524.645 487.243 524.997 486.626C526.402 484.247 526.666 481.521 527.806 479.054C528.159 478.348 528.775 477.47 528.07 476.411C527.894 476.235 528.159 475.534 528.335 475.092C529.299 473.332 529.827 471.395 530.268 469.546C530.532 468.664 530.268 467.609 530.62 466.727C531.32 465.055 531.32 463.294 531.76 461.534C532.201 459.773 532.817 458.013 533.077 456.253C533.517 453.786 534.222 451.408 534.922 449.03C535.01 448.77 534.834 448.328 535.45 448.417C535.802 448.505 535.891 448.152 535.362 447.622C535.186 447.534 535.274 447.358 535.362 447.269C535.45 446.656 535.538 446.038 535.714 445.421C535.714 445.16 535.714 444.631 536.243 445.16C536.419 445.332 536.507 444.807 536.419 444.719C535.45 443.748 536.331 442.782 536.595 442.076C538.088 439.261 539.052 436.177 540.285 433.274C540.633 432.568 540.461 431.69 541.161 431.072C541.425 430.808 541.778 430.366 542.13 430.366C543.535 430.278 544.939 430.013 546.432 430.455C546.784 430.543 547.136 430.543 547.489 430.366C548.189 429.925 548.893 430.719 549.774 430.455C550.562 430.19 551.531 430.102 552.495 430.278C553.2 430.455 553.9 430.984 554.78 430.631C555.044 430.543 555.661 430.984 555.833 431.602C556.185 432.568 556.625 433.539 557.506 434.152C558.206 434.682 557.942 435.476 558.294 436.089C559.527 438.555 560.051 441.287 560.932 443.925C561.984 447.093 562.424 450.265 562.953 453.521C563.565 456.689 564.357 459.862 564.974 463.118C565.15 464.089 564.974 465.231 565.409 466.114C566.026 467.345 566.202 468.575 565.85 469.899C565.674 470.601 566.378 470.601 566.554 471.13C567.342 474.475 567.342 477.819 568.311 481.168C569.016 483.193 569.187 485.478 569.628 487.592C570.068 489.705 570.597 491.73 570.861 493.844C571.037 495.781 571.649 497.718 571.297 499.655C570.861 501.68 569.804 502.298 568.047 501.238C567.171 500.709 567.171 501.15 567.083 501.856ZM532.159 444.278C532.423 444.013 532.683 443.837 532.423 443.484C532.247 443.66 532.071 443.837 532.159 444.278ZM531.631 446.568C531.983 446.215 531.983 446.038 531.807 445.774C531.542 445.95 531.631 446.215 531.631 446.568ZM560.547 456.866C560.811 456.076 560.547 455.723 560.195 455.282L560.547 456.866ZM560.811 457.748C560.899 457.572 560.987 457.483 560.987 457.307C561.075 457.13 560.899 457.042 560.723 457.13C560.635 457.13 560.635 457.307 560.635 457.483C560.635 457.572 560.723 457.66 560.811 457.748ZM544.939 473.244H550.65C551.002 473.244 551.267 473.155 551.178 472.714C551.002 471.66 551.09 470.424 550.738 469.458C549.774 466.462 549.422 463.382 549.245 460.215C549.157 459.509 549.157 458.714 548.629 457.836C547.312 463.118 547.048 468.311 544.939 473.244ZM581.666 445.072C579.645 445.072 577.624 445.509 575.603 445.16C572.882 444.719 572.442 444.278 571.825 441.723C571.297 439.698 571.297 437.673 571.737 435.648C571.913 435.123 571.737 434.417 571.825 433.887C572.089 432.215 572.882 431.514 575.251 431.514C577.976 431.426 580.697 430.984 583.423 430.984C587.553 430.896 591.684 430.366 595.814 430.455C600.027 430.631 604.246 430.631 608.464 430.631C610.221 430.631 612.066 430.366 613.823 431.161C614.263 431.426 614.351 431.514 614.351 432.039C614.439 433.186 614.263 434.24 614.439 435.388C614.527 435.564 614.703 435.648 614.527 435.824C613.559 437.236 614.351 438.908 613.823 440.316C613.735 440.492 613.735 440.757 613.911 440.845C614.792 441.37 614.263 442.165 614.263 442.782C614.263 444.19 613.206 444.366 612.242 444.631C611.102 444.896 610.045 444.984 608.904 444.984C607.148 444.896 605.391 444.984 603.629 445.072C602.841 445.072 602.137 445.16 601.437 445.072C599.851 445.072 599.763 445.072 599.763 446.568C599.851 448.77 599.763 450.967 600.027 453.168C600.204 454.929 600.204 456.689 599.939 458.454C599.592 461.093 599.68 463.824 599.68 466.462C599.68 469.635 599.416 472.714 598.975 475.882C598.799 477.382 599.239 478.878 599.327 480.374C599.416 482.752 599.327 485.13 599.416 487.592C599.416 488.474 599.504 489.264 599.592 490.146C600.027 493.579 599.68 497.012 599.239 500.361C599.151 501.415 598.271 502.298 597.042 502.386L593.969 502.646C592.648 502.822 591.419 502.298 590.103 502.386C589.574 502.386 589.046 502.298 588.517 502.386C587.289 502.474 586.061 502.033 585.004 501.503C584.74 501.327 584.651 500.709 584.651 500.361C584.563 498.247 584.04 496.134 584.216 494.02C584.651 489.882 584.475 485.743 584.74 481.604C584.916 479.407 584.563 477.206 584.74 475.004C584.916 471.748 584.563 468.575 584.828 465.319V465.055C584.04 461.357 584.916 457.66 584.304 454.051C583.775 451.496 584.304 449.03 584.651 446.48C584.828 445.161 584.74 445.072 583.335 445.072H581.666ZM658.259 498.949C658.083 499.743 657.554 500.008 656.938 500.272C656.85 499.831 657.202 499.39 656.761 498.949C656.673 499.302 656.585 499.566 656.414 500.008C656.238 499.302 655.885 499.39 655.357 499.39C654.652 499.478 654.217 499.655 654.128 500.272C653.952 500.184 653.864 500.184 653.864 500.184C653.424 499.566 652.984 498.688 652.284 498.688C651.667 498.688 652.372 499.743 651.843 500.184C651.227 499.655 650.786 498.772 649.734 498.949C649.382 499.037 649.294 498.6 649.206 498.247C648.594 494.285 649.029 490.323 649.117 486.361C649.294 482.575 649.47 478.79 649.382 474.916C649.382 474.475 649.294 474.21 648.682 474.21C646.22 474.21 643.759 474.298 641.297 473.945C640.597 473.861 640.421 474.21 640.421 474.916C640.421 476.853 640.509 478.79 640.421 480.727C640.245 484.777 640.245 488.916 640.157 493.049C640.157 495.163 640.421 497.276 639.981 499.39C639.893 500.008 639.541 500.625 639.452 501.238C639.364 501.503 639.105 501.944 638.4 501.68C637.431 501.415 636.379 501.856 635.327 501.944C634.006 502.033 632.601 501.856 631.461 502.298C629.264 502.999 627.243 502.033 625.133 502.646C623.905 502.911 623.2 502.386 623.2 501.062C623.112 497.718 623.2 494.462 623.288 491.113V490.323C622.936 486.096 622.848 481.869 623.112 477.647C623.553 471.924 623.024 466.286 623.2 460.563C623.288 454.316 623.2 447.975 623.2 441.723C623.112 437.938 622.848 434.064 623.465 430.278C623.553 429.489 623.905 429.224 624.781 429.665C625.574 430.013 626.626 429.577 627.243 430.543C627.419 430.719 627.419 430.102 627.683 430.013L627.943 431.161C628.559 431.161 628.207 430.543 628.471 430.366C628.823 430.013 629.087 429.4 629.528 429.753C630.668 430.719 631.285 429.4 632.161 429.312C632.425 429.925 631.897 430.543 632.161 431.249C632.689 430.631 632.865 430.013 632.425 428.959C633.218 429.753 632.865 430.366 632.865 430.984C633.83 430.543 633.653 430.366 634.358 429.665C634.798 429.136 635.763 429.224 636.643 429.4C637.431 429.577 636.908 430.013 636.996 430.455C636.379 430.455 636.643 429.842 636.291 429.665C635.939 430.19 635.851 430.719 636.379 430.896C636.643 431.072 637.172 430.808 637.343 430.278C637.519 429.925 637.784 429.577 638.136 428.871C637.96 431.161 639.276 432.921 638.664 434.946C639.364 434.152 638.753 433.009 639.629 431.95C639.629 432.48 639.805 432.833 639.805 433.098C639.805 435.648 640.069 438.114 640.421 440.669C640.685 442.253 639.805 443.66 639.981 445.244C640.157 447.622 640.157 449.912 640.245 452.29C640.333 454.227 640.245 456.164 640.509 458.101C640.597 458.714 640.509 459.244 641.474 458.891C642.002 458.714 642.883 458.891 643.583 459.244C644.375 459.597 645.428 459.244 646.308 459.156C646.308 458.803 645.78 459.067 645.78 458.626C645.78 458.366 646.044 458.366 646.308 458.366C647.096 458.278 647.977 458.189 648.853 458.278C649.47 458.278 649.734 458.278 649.734 457.572C649.822 456.606 649.91 455.635 649.822 454.669C649.382 450.354 649.822 446.127 649.734 441.812C649.734 438.644 649.734 435.476 649.822 432.303C649.91 431.161 649.734 429.925 650.527 428.959C651.315 430.102 651.755 430.102 653.512 429.136C653.776 428.959 653.864 428.783 654.217 428.871C655.533 429.136 656.761 429.136 658.083 428.606C658.694 428.341 659.487 429.136 660.275 429.136C660.539 429.136 660.716 429.312 660.98 429.224C661.949 428.694 662.913 429.136 663.97 429.224C665.022 429.4 665.198 430.013 665.374 430.896C666.074 433.627 666.074 436.442 666.162 439.261C666.338 443.484 666.074 447.711 666.426 451.937C666.691 454.752 666.691 457.66 666.691 460.479C666.691 464.702 666.515 468.928 666.162 473.067C665.903 475.622 666.074 478.172 665.903 480.727C665.638 486.096 665.286 491.377 665.286 496.663C665.286 497.894 664.758 499.037 664.934 500.184C665.022 500.449 664.934 500.625 664.67 500.625C664.141 500.625 663.529 500.537 663.353 500.096C663.001 499.566 662.649 499.743 662.384 499.919C661.508 500.361 660.98 499.566 660.451 499.302C660.016 499.125 659.839 498.949 659.663 499.39C658.959 500.625 658.783 499.566 658.259 498.949ZM633.482 430.102C633.394 429.665 633.394 429.4 633.565 429.136L633.83 429.312C634.182 429.665 633.83 429.842 633.482 430.102ZM628.911 430.808C628.735 430.896 628.647 431.072 628.735 431.249C628.735 431.337 628.823 431.337 628.911 431.337C628.999 431.161 629.087 430.984 628.911 430.808ZM635.568 443.748C635.568 443.572 635.484 443.572 635.484 443.66C635.484 443.748 635.484 443.748 635.568 443.837V443.748ZM634.604 445.421C634.163 445.95 634.251 446.48 634.428 447.009C634.516 446.48 634.956 445.95 634.604 445.421ZM625.991 446.48C625.908 446.391 625.908 446.215 625.731 446.303C625.643 446.303 625.643 446.48 625.643 446.48C625.643 446.568 625.731 446.656 625.819 446.744C625.819 446.656 625.908 446.568 625.991 446.48ZM625.036 449.647C624.86 449.471 624.684 449.294 624.508 449.206C624.508 449.294 624.42 449.383 624.42 449.559C624.508 449.647 624.508 449.824 624.684 449.824C624.772 449.824 624.86 449.736 625.036 449.647ZM631.628 453.963C631.711 453.786 631.711 453.61 631.711 453.521C631.711 453.345 631.799 452.992 631.452 453.168C631.187 453.345 631.363 453.61 631.628 453.963ZM633.297 453.345C633.385 453.963 633.385 454.404 633.385 454.84C633.473 454.404 633.644 453.963 633.297 453.345ZM632.68 454.139C632.68 454.316 632.592 454.404 632.592 454.492C632.592 454.58 632.592 454.752 632.768 454.669C632.856 454.669 632.944 454.492 632.944 454.404C632.944 454.316 632.856 454.227 632.68 454.139ZM636.106 457.925C637.074 457.483 636.722 456.954 636.194 456.429C636.018 456.341 636.37 455.635 635.753 455.9C635.318 456.164 635.318 456.689 635.577 456.866C636.194 457.042 635.841 457.572 636.106 457.925ZM634.173 457.572C634.173 457.042 634.349 456.689 633.996 456.341C633.644 456.777 633.556 457.042 634.173 457.572ZM627.409 460.916C627.233 460.563 627.497 460.303 626.969 460.038C627.145 460.391 626.969 460.563 627.409 460.916ZM624.772 460.651C624.684 460.651 624.596 460.563 624.508 460.563C624.419 460.563 624.331 460.651 624.331 460.74L624.508 460.916C624.596 460.916 624.684 460.828 624.772 460.651ZM634.822 463.118C634.998 463.824 634.734 464.265 635.086 464.613C634.998 464.265 635.35 463.824 634.822 463.118ZM633.505 463.912C633.505 463.647 633.857 463.559 633.945 463.382C633.857 463.294 633.681 463.294 633.593 463.294C633.241 463.294 633.417 463.559 633.417 463.735C633.417 463.824 633.505 463.824 633.505 463.912ZM627.178 467.433C627.09 467.345 627.09 467.168 627.001 467.168C626.649 467.08 626.737 467.345 626.825 467.433C626.825 467.521 626.913 467.609 627.001 467.698L627.178 467.433ZM626.825 468.311C626.561 469.017 626.561 469.458 626.825 469.899C627.001 469.458 626.825 469.017 626.825 468.311ZM626.737 470.512C626.737 471.13 626.561 471.483 626.913 471.748C627.001 471.395 627.001 471.042 626.737 470.512ZM626.913 473.945C627.001 473.508 627.09 473.067 626.649 472.449C626.649 473.155 626.561 473.597 626.913 473.945ZM650.262 483.453C649.822 484.071 649.91 484.512 650.174 485.042C650.174 484.512 650.615 484.159 650.262 483.453ZM650.874 484.953C650.874 485.13 650.786 485.218 650.786 485.306C650.786 485.39 650.786 485.567 650.962 485.478C651.051 485.478 651.139 485.306 651.139 485.218C651.139 485.13 651.051 485.042 650.874 484.953ZM650.615 493.756C650.527 493.756 650.439 493.667 650.439 493.667C650.351 493.756 650.351 493.844 650.351 493.932C650.351 493.932 650.527 494.02 650.527 493.932C650.615 493.932 650.615 493.844 650.615 493.756ZM655.093 496.575C654.917 496.84 654.917 497.188 655.093 497.453C655.445 497.1 655.269 496.84 655.093 496.575ZM679.313 497.629C679.137 495.163 678.873 492.436 678.873 489.793C678.873 486.979 678.609 484.247 678.344 481.433C678.168 479.668 678.344 477.995 678.697 476.235C678.785 475.97 678.785 475.534 678.785 475.269C678.432 470.336 679.225 465.496 679.049 460.563C678.961 457.395 678.873 454.139 678.609 450.967C678.432 449.206 678.609 447.534 678.961 445.862C679.225 443.925 679.225 441.812 678.873 439.875C678.609 437.496 678.521 435.123 678.961 432.745C679.137 431.862 679.754 431.514 680.277 431.514C681.422 431.602 682.298 431.072 683.355 430.719C684.408 430.455 685.553 430.808 686.605 430.631C687.221 430.455 688.538 430.631 689.942 430.543C691.347 430.455 692.844 430.543 694.337 430.719C694.689 430.808 695.213 431.072 695.301 431.69C695.918 434.593 696.446 437.496 695.918 440.492C695.741 441.547 695.653 442.694 695.83 443.748C696.006 445.072 695.918 446.48 695.653 447.887C695.13 450.707 695.653 453.433 696.006 456.253C696.446 460.126 696.534 463.912 696.182 467.786C696.006 470.601 696.182 473.508 696.006 476.323C695.918 478.525 695.741 480.727 695.653 482.84C695.565 484.865 696.534 485.92 698.467 485.831C701.364 485.743 704.178 486.008 706.987 485.567C707.692 485.39 708.308 485.655 709.008 485.743C711.029 485.831 713.05 485.655 715.072 485.478C716.388 485.306 717.621 485.478 718.849 486.096C719.29 486.449 719.906 486.537 720.518 486.273C721.047 486.008 721.751 486.449 721.839 486.89C722.011 488.21 722.539 489.529 722.804 490.852C723.156 492.966 723.068 494.109 722.539 496.222C722.099 497.894 722.099 499.566 721.575 501.238C721.487 501.768 721.399 502.033 720.782 501.944C719.202 501.768 717.533 502.121 715.952 502.386C713.843 502.822 711.646 502.734 709.537 502.386C707.868 502.121 706.199 502.209 704.53 502.298C700.576 502.474 696.622 501.768 692.756 501.768C690.119 501.856 687.486 501.768 684.848 501.768C683.791 501.856 682.915 501.68 681.946 501.327C681.687 501.15 681.334 501.062 681.158 500.974C680.63 500.709 679.925 501.238 679.577 500.625C679.225 500.008 679.225 499.125 679.225 498.424C679.225 498.159 679.225 497.982 679.313 497.629ZM764.903 461.799C764.815 459.95 764.463 458.013 764.203 456.076C763.939 454.492 763.939 452.904 763.939 451.32C763.939 450.795 763.939 450.089 764.027 449.383C764.551 450 764.203 450.707 764.463 451.408C764.551 451.143 764.639 450.967 764.727 450.883C765.256 450.177 764.551 449.471 764.639 448.77C764.727 446.833 764.287 444.896 764.639 443.047C764.727 442.782 764.639 442.518 764.639 442.165C764.639 441.988 764.551 441.812 764.287 441.812C764.115 441.723 764.027 441.723 763.939 441.9C763.851 442.076 763.939 442.341 764.203 442.429V443.395C763.939 442.959 764.203 442.694 764.203 442.429L763.675 442.782C763.763 442.253 763.411 441.812 763.851 441.459C764.375 441.022 764.375 441.022 763.851 440.581C764.375 440.316 764.463 439.963 764.375 439.261C764.115 437.938 763.411 436.795 762.882 435.648C762.706 435.476 762.53 434.858 762.182 435.123C761.654 435.476 761.654 435.035 761.654 434.858C761.83 434.064 761.301 433.539 760.773 433.274C759.897 432.833 759.721 431.95 759.104 431.337C758.752 431.072 759.104 430.366 758.492 430.19C758.14 430.543 758.664 430.896 758.404 431.249C757.612 430.896 756.907 430.543 756.207 430.278C755.767 430.19 755.679 429.842 755.414 429.577C754.626 430.366 753.834 429.577 753.041 429.489C751.989 429.4 750.932 429.4 749.88 429.224C748.999 429.136 748.035 428.694 747.07 429.4C746.718 429.665 745.749 429.136 745.137 429.665L744.785 429.577C744.697 428.694 744.081 429.224 743.728 429.136C743.992 429.312 744.257 429.489 744.081 429.925C743.64 429.753 743.376 429.489 742.764 429.842C742.236 430.102 742.236 429.665 742.588 429.224C741.007 429.224 739.774 430.19 738.193 430.19C738.37 430.543 738.634 430.278 738.81 430.631C738.193 430.366 737.665 430.808 737.141 430.631C736.613 430.543 736.525 431.337 735.996 431.161C735.996 431.161 735.82 431.426 735.644 431.249C735.296 430.631 734.592 431.249 734.504 431.337C733.628 432.215 732.747 433.186 731.866 434.152C731.342 434.77 731.342 435.648 730.638 436.177C730.197 436.619 729.761 436.883 730.197 437.496C730.285 437.673 730.109 437.849 729.933 437.761C729.497 437.761 729.497 438.114 729.321 438.467C728.264 441.022 728.352 443.748 728.528 446.391C728.616 446.833 728.088 447.009 728.352 447.446C729.145 448.681 728.969 450.177 729.057 451.496C729.145 453.433 728.44 455.282 728.352 457.219C728.264 459.685 727.564 462.152 727.828 464.525C728.088 468.222 727.74 472.008 728.088 475.71C728.352 478.701 728.352 481.693 728.352 484.689C728.352 486.802 728.881 488.916 729.233 490.941C729.673 494.109 731.694 496.575 733.887 498.688C735.56 500.361 737.929 500.797 740.038 501.591C741.531 502.121 743.204 502.474 744.785 502.209C746.19 501.944 747.418 502.298 748.651 502.562C749.791 502.734 750.932 502.734 752.077 502.646C754.362 502.646 756.383 501.415 758.052 499.919C758.928 499.213 759.809 498.6 760.597 497.894C761.566 497.012 762.442 496.222 762.97 495.075C763.763 493.138 764.115 491.029 764.115 489.004C764.203 487.243 764.463 485.478 764.639 483.718C764.727 482.046 764.991 480.462 764.815 478.79C764.727 476.941 764.815 475.181 764.727 473.332C764.639 472.008 764.991 470.601 765.167 469.193C765.52 466.727 764.991 464.265 764.903 461.799ZM750.909 429.842C750.821 429.842 750.732 429.753 750.644 429.753C750.909 429.489 751.173 429.489 751.261 429.665C751.349 429.925 751.085 429.842 750.909 429.842ZM755.832 431.072C755.743 431.072 755.655 430.984 755.655 430.896C755.655 430.808 755.743 430.719 755.92 430.808L756.096 430.984C756.008 431.072 755.92 431.161 755.832 431.072ZM736.59 431.514C736.501 431.514 736.501 431.426 736.501 431.337C736.59 431.249 736.678 431.249 736.766 431.249L736.854 431.337C736.766 431.426 736.678 431.514 736.59 431.514ZM757.765 432.215C757.677 432.039 757.765 432.039 757.853 432.039C758.029 432.039 758.112 432.127 758.112 432.215C758.112 432.303 758.029 432.392 757.941 432.392C757.853 432.303 757.765 432.303 757.765 432.215ZM758.729 432.745C758.729 432.745 758.817 432.656 758.905 432.656C758.993 432.656 759.081 432.745 759.169 432.833C758.993 432.833 758.905 432.921 758.905 432.921C758.817 432.921 758.729 432.833 758.729 432.745ZM759.698 434.24C759.698 434.152 759.786 434.064 759.786 434.064C760.045 434.152 760.133 434.329 760.133 434.505C760.221 434.77 759.962 434.682 759.874 434.682C759.698 434.593 759.609 434.417 759.698 434.24ZM759.257 434.593C759.169 434.593 759.081 434.505 759.081 434.417L759.257 434.24C759.345 434.417 759.433 434.417 759.433 434.505C759.345 434.593 759.257 434.682 759.257 434.593ZM760.309 435.912C760.045 436.089 760.486 436.53 760.045 436.53C759.786 436.53 759.698 436.442 759.521 436.266C759.081 435.824 759.786 436.089 759.786 435.912V435.648C759.962 435.388 759.257 435.211 759.698 435.035C760.045 434.858 760.398 435.211 760.486 435.388C760.662 435.736 761.19 436.001 761.014 436.53C760.662 436.442 760.662 436.001 760.309 435.912ZM758.641 435.299C758.553 435.211 758.465 435.123 758.553 435.035C758.641 435.035 758.729 435.035 758.729 435.123C758.817 435.123 758.817 435.211 758.817 435.299H758.641ZM761.366 435.824C761.366 435.648 761.542 435.388 761.719 435.476C761.978 435.648 762.154 435.912 762.242 436.266C762.066 435.912 761.278 436.53 761.366 435.824ZM758.886 438.732C759.239 438.026 758.798 437.761 758.446 437.413C758.182 437.236 758.182 437.06 758.446 436.883C758.622 436.795 758.798 436.883 758.974 436.972C759.591 437.496 760.031 439.698 759.591 440.492C759.062 440.051 758.534 439.433 758.886 438.732ZM757.306 438.114L757.13 437.849C757.218 437.849 757.218 437.761 757.306 437.761C757.306 437.849 757.394 437.938 757.482 438.114H757.306ZM726.276 438.114C725.923 438.555 725.835 438.908 725.923 439.261L726.276 438.114ZM749.527 482.222C749.439 483.016 749.351 483.718 749.351 484.512C749.439 485.743 749.087 486.89 748.563 488.033C748.299 488.739 747.858 489.18 746.894 488.916C745.925 488.651 744.873 488.916 743.992 488.033C743.464 487.592 743.376 487.155 743.376 486.449C743.464 483.105 743.64 479.844 743.376 476.5C743.028 472.714 742.764 468.84 743.028 465.055C743.116 463.382 742.764 461.622 742.94 459.95C743.028 458.714 742.852 457.307 743.816 456.253C743.904 456.164 743.992 455.988 743.992 455.9C743.552 454.58 744.433 453.433 744.521 452.202C744.521 450.795 744.609 449.294 744.521 447.799C744.521 447.269 744.609 447.009 745.221 446.744C746.014 446.48 746.454 445.509 747.594 445.685C748.651 445.862 749.88 447.181 749.792 448.328C749.792 448.946 749.703 449.471 749.615 450.089V451.849H749.527C749.527 452.992 749.615 454.139 749.439 455.194C749.263 456.517 749.703 457.748 749.703 459.067C749.703 460.391 749.792 461.71 749.968 463.118C750.32 466.025 749.968 469.017 750.056 471.924C750.056 474.033 750.144 476.147 750.232 478.26C750.32 479.668 749.703 480.903 749.527 482.222ZM740.97 453.786V453.433L741.058 453.61C741.058 453.698 741.146 453.874 741.058 453.874C740.887 454.051 740.97 453.874 740.97 453.786ZM758.664 497.806C758.576 497.806 758.404 497.806 758.492 497.629C758.492 497.629 758.664 497.541 758.752 497.541L758.84 497.629C758.84 497.806 758.752 497.806 758.664 497.806ZM756.995 499.037C756.819 499.125 756.819 498.949 756.819 498.86C756.819 498.772 756.907 498.688 756.995 498.6C757.083 498.688 757.171 498.688 757.171 498.688C757.171 498.772 757.083 498.949 756.995 499.037ZM742.588 499.919C742.94 499.743 743.116 499.831 743.288 500.096C743.028 500.361 742.852 500.096 742.588 499.919ZM744.257 500.096H745.485C745.137 500.361 744.697 500.184 744.257 500.096ZM798.58 449.03C798.58 447.622 798.58 446.391 798.492 445.16C798.492 444.896 798.492 444.807 798.668 444.543C799.016 444.19 798.84 443.572 798.84 443.135C798.756 442.518 798.928 441.9 798.84 441.198C798.668 439.085 798.84 436.972 799.016 434.858C799.104 433.539 799.456 432.215 799.809 430.896C799.985 430.278 800.601 430.278 801.125 430.278C801.389 430.278 801.565 430.278 801.654 429.925C801.742 429.753 801.918 429.665 802.094 429.665C802.534 429.577 803.058 428.871 803.587 429.753C803.763 430.013 804.379 429.842 804.727 430.278H804.815C805.343 429.4 806.136 430.543 806.66 430.013C806.66 430.013 806.836 430.013 806.836 430.102C807.1 430.631 807.364 430.366 807.629 430.19C808.069 430.013 808.505 429.842 808.857 430.366C808.945 430.366 809.121 430.455 809.209 430.366C809.738 430.013 810.35 430.808 810.878 430.455C811.23 430.984 811.935 430.455 812.199 431.072C812.199 431.161 812.283 431.161 812.371 431.161C813.252 431.072 813.516 431.249 813.692 431.95C814.128 433.627 814.48 435.299 814.044 436.972C813.868 437.938 813.956 438.908 814.128 439.875C814.216 440.404 814.044 440.934 814.044 441.459C813.956 443.572 813.78 445.685 813.956 447.799C814.044 450.707 813.34 453.61 813.34 456.517C813.34 458.714 812.899 460.828 812.899 463.118C812.811 464.966 812.635 466.903 812.547 468.752C812.459 471.13 812.459 473.508 812.547 475.882C812.723 478.701 812.459 481.433 812.547 484.247C812.635 486.537 812.723 488.916 812.635 491.201C812.635 493.667 812.459 496.134 811.759 498.6L811.495 499.302C811.142 499.743 811.231 500.184 811.142 500.625C810.878 501.238 810.35 501.415 809.826 501.503C809.209 501.503 808.681 501.415 808.157 501.856C807.541 502.298 806.748 502.121 806.048 502.209C804.551 502.474 802.97 502.386 801.477 502.646C800.949 502.822 800.337 502.562 799.897 502.209C799.544 502.033 799.192 501.856 798.84 501.856C797.964 501.944 797.523 501.415 797.171 500.797C796.031 498.86 795.59 496.663 795.238 494.462C794.978 493.049 794.538 491.819 794.01 490.499C793.305 489.004 793.045 487.327 792.693 485.743L792.165 483.894C791.812 482.487 791.46 480.991 791.024 479.584C791.024 479.407 790.936 479.319 790.848 479.143C790.672 479.231 790.672 479.319 790.672 479.496C790.496 481.433 790.32 483.37 790.32 485.306C790.32 485.831 790.232 486.449 790.232 486.979C790.232 489.352 790.144 491.73 789.703 494.02C789.439 495.339 789.179 496.575 789.003 497.894C788.827 499.125 788.739 500.272 788.387 501.415C788.299 501.768 788.122 502.033 788.034 502.386C787.858 501.768 787.246 501.327 787.418 500.625C786.982 500.709 787.07 501.15 786.982 501.415C786.454 501.15 785.925 500.625 785.313 500.974C785.225 500.974 785.225 501.062 785.225 501.062C784.697 500.361 784.433 501.327 784.168 501.238C783.816 501.15 783.292 501.327 783.028 500.974C782.5 500.361 782.5 500.885 782.323 501.238C782.235 501.415 782.235 501.591 782.147 501.856C781.971 501.591 782.059 501.415 782.059 501.238C782.059 501.062 781.883 500.885 781.795 500.974C781.447 501.591 781.447 501.062 781.359 500.885C781.271 500.709 781.095 500.625 780.831 500.709C780.655 500.709 780.655 500.885 780.567 501.062C780.567 501.327 780.655 501.591 780.39 501.768C780.214 501.503 780.302 501.238 780.39 500.885C779.69 501.327 779.338 500.625 778.81 500.537C778.369 500.537 777.929 500.184 777.405 500.184C777.141 500.184 776.524 500.008 776.172 499.743C776.084 499.566 775.908 499.478 775.736 499.478C774.856 499.39 774.768 498.772 774.68 498.071C774.503 496.751 774.591 495.339 774.503 493.932C774.503 492.701 774.944 491.554 774.944 490.411C774.944 489.264 775.032 488.121 774.768 486.979C774.68 486.361 774.856 485.743 774.944 485.218C775.12 483.37 775.032 481.521 775.472 479.756C775.824 478.084 775.648 476.323 775.56 474.651C775.384 472.802 775.384 471.042 775.736 469.282C775.908 467.962 775.996 466.639 775.736 465.319C775.384 463.206 775.384 461.181 775.472 459.067C775.648 457.483 775.736 455.9 775.908 454.404C776.084 453.61 775.908 452.732 775.908 451.937C775.996 451.143 775.996 450.265 775.996 449.471C775.996 448.328 775.825 447.181 775.908 446.038C776.084 444.19 776.26 442.253 776.084 440.404L775.824 435.648C775.736 434.593 775.648 433.539 775.996 432.48C776.26 431.514 776.701 431.426 777.581 431.426C778.457 431.514 779.338 431.69 780.038 431.161C780.39 430.896 780.743 430.896 781.183 430.984C781.359 431.072 781.707 431.161 781.971 431.072C782.852 430.984 783.64 430.896 784.521 431.072C784.873 431.072 785.137 430.896 785.485 430.984C785.837 430.984 786.189 430.984 786.454 431.249C786.63 431.426 786.806 431.426 787.07 431.249C787.594 430.984 787.946 431.602 788.475 431.514C788.651 431.514 788.915 431.774 788.915 431.337C789.003 431.249 789.179 431.337 789.351 431.426C789.791 431.774 790.144 432.303 790.848 432.039C790.848 432.039 791.024 432.127 791.024 432.215C791.372 433.627 792.517 434.593 793.129 435.824C794.186 437.673 794.978 439.61 795.766 441.547C796.471 443.135 796.735 444.896 797.523 446.48C797.876 447.269 797.964 448.064 798.58 449.03ZM785.967 430.896C785.879 430.984 785.879 431.072 785.791 431.072C785.703 430.984 785.615 430.984 785.615 430.808C785.615 430.808 785.615 430.719 785.703 430.719C785.791 430.808 785.879 430.896 785.967 430.896Z" fill="#BF4C0C"/>
</g>
<g filter="url(#filter1_d_133_83)">
<path d="M483.262 366.523C483.346 366.541 483.434 366.56 483.517 366.578C484.852 367.842 484.806 369.426 485.079 371.116C486.901 373.643 487.833 364.34 489.441 363.443C492.515 368.947 488.486 374.493 489.108 380.067C490.415 378.957 490.396 376.463 490.906 375.06C490.952 376.765 490.651 379.017 491.333 380.801C491.439 380.806 491.546 380.81 491.648 380.82C493.493 376.621 493.998 371.85 495.324 367.438C495.379 367.452 495.435 367.466 495.491 367.475C495.361 369.821 494.721 372.25 495.161 374.563C495.24 374.577 495.314 374.591 495.389 374.605C497.113 372.821 495.861 368.966 498.606 368.139V373.049C498.689 373.053 498.777 373.063 498.865 373.067C499.63 370.963 499.797 368.701 500.376 366.379C500.757 367.387 500.849 368.404 501.35 369.138C502.087 369.18 501.772 370.327 502.096 370.847C502.194 370.852 502.291 370.856 502.393 370.861C504.14 368.186 503.978 360.619 506.157 359.323C507.821 377.081 508.048 394.912 505.387 412.577C505.211 414.156 504.984 413.71 506.398 414.356C507.673 414.681 507.561 416.595 509.133 416.483C511.9 416.2 515.307 414.156 514.821 410.886C513.856 395.609 513.258 380.411 511.933 365.138C512.239 365.478 512.419 365.677 512.744 366.035C513.268 363.513 512.531 361.139 512.971 358.784C515.196 362.273 515.497 366.829 517.097 370.666C517.185 370.643 517.277 370.624 517.366 370.606C517.069 368.176 516.772 365.747 516.48 363.364C522.01 368.051 520.045 372.115 522.441 377.54C523.475 374.447 522.08 370.824 521.932 367.577C523.378 370.383 527.605 387.634 527.661 375.302C528.463 376.997 528.398 379.426 530.136 380.244C530.206 374.224 526.864 368.325 525.047 362.579C528.074 361.065 525.719 355.045 523.549 353.401C528.264 355.342 530.521 356.36 531.295 361.729C531.49 362.273 531.907 362.765 532.556 362.621C534.174 361.079 532.106 357.957 531.94 355.965L532.148 355.853C533.877 358.009 540.427 369.324 540.696 360.926C541.021 361.924 544.734 366.058 544.497 363.058C542.699 359.077 539.495 355.997 536.978 352.458C537.98 352.518 538.633 352.188 539.106 351.255C541.127 359.955 544.085 359.216 541.461 350.758C543.412 352.662 549.944 364.265 550.12 355.793C550.621 356.731 553.722 360.582 554.083 358.273C552.878 355.027 550.338 352.565 548.604 349.569C553.499 349.42 538.68 339.378 537.15 338.997C535.82 338.63 534.517 338.147 533.08 338.407C532.222 338.565 531.963 338.258 531.814 337.371C531.161 332.638 528.593 336.577 528.982 330.302C530.989 330.292 531.527 333.349 533.187 333.209C534.211 332.15 532.602 330.529 532.208 329.363C533.859 330.45 535.472 331.509 537.145 332.61V330.204C540.117 332.986 543.176 335.16 547.042 336.433C543.853 331.932 538.587 329.164 533.947 326.437C529.821 325.211 524.963 324.872 523.415 320.088C525.913 320.961 528.393 321.834 530.878 322.703C525.575 317.751 513.792 315.322 515.233 306.204C515.669 307.611 515.358 309.228 516.406 310.519C516.888 309.051 517.352 307.653 517.811 306.25C517.264 308.387 518.937 309.702 519.484 311.731C520.36 309.92 520.323 308.364 519.934 306.427C520.003 306.399 520.073 306.366 520.147 306.339C522.418 308.587 521.723 315.763 525.005 316.246C525.074 315.303 525.149 314.319 525.232 313.218C525.691 314.017 525.784 314.927 526.706 315.522C526.943 313.631 526.192 312.061 525.9 310.366C528.523 311.457 528.398 314.927 530.415 316.66C530.475 316.618 530.535 316.576 530.6 316.534C530.665 314.885 529.988 313.366 529.636 311.662C531.42 313.046 533.418 313.891 534.345 316.056C534.962 317.027 535.555 318.443 536.802 318.652C537.002 317.412 535.959 316.321 535.565 315.164C535.639 315.108 535.713 315.048 535.787 314.992C537.6 316.469 538.911 319.581 541.554 319.395C543.616 318.824 541.702 317.384 540.678 316.808C535.476 312.679 530.911 308.085 527.327 302.465C525.167 299.074 520.648 300.087 521.065 295.042C522.33 296.18 523.447 297.183 524.597 298.219C525.107 297.783 525.589 297.374 526.136 296.909C526.98 298.767 527.457 300.825 529.682 301.522V298.558C529.747 298.526 529.812 298.493 529.872 298.461C531.221 300.156 532.032 302.353 534.48 302.683C533.59 300.899 532.76 299.237 531.93 297.569C533.46 298.944 535.138 302.256 537.567 300.853C536.714 295.934 532.422 294.285 528.366 292.343C523.123 290.054 520.212 284.796 516.197 280.963C514.343 279.101 515.052 276.727 514.427 274.238C520.495 277.452 516.095 281.892 524.551 279.356C523.702 277.93 522.914 276.607 522.094 275.227C524.527 275.701 526.521 277.303 529.029 277.169C526.674 274.451 523.387 272.923 520.708 270.661C517.454 266.899 514.649 262.755 511.594 258.826C509.689 254.427 509.314 249.425 507.83 244.845C505.304 253.015 505.981 262.686 497.781 267.828C496.223 269.054 494.151 269.625 492.515 270.698C490.303 272.305 488.922 275.515 485.765 275.315C482.006 277.466 489.39 276.1 490.531 275.603C489.594 276.932 488.769 278.093 487.861 279.384C490.628 278.841 491.926 276.537 493.966 275.023C493.507 276.723 493.08 278.297 492.626 279.96C495.815 279.686 496.153 276.054 497.873 273.991C499.709 278.859 498.861 278.023 503.955 277.368C502.75 281.284 493.442 287.164 489.395 288.553C485.177 289.245 482.497 291.953 480.003 295.223C479.642 295.632 479.707 296.069 479.999 296.371C481.454 297.193 482.483 295.209 483.573 294.387C482.947 295.762 481.853 296.77 481.807 298.187C484.634 297.992 485.441 294.527 488.412 294.215C487.657 295.999 486.98 297.588 486.257 299.288C489.233 298.791 489.849 295.6 492.051 294.071C493.785 295.168 491.597 296.965 491.319 298.41C493.238 296.51 495.059 295.242 497.845 295.302C497.873 295.377 497.901 295.451 497.929 295.525C496.858 297.049 495.421 298.387 495.467 300.221C493.368 302.358 490.674 302.743 488.023 303.793C485.742 304.504 483.679 306.325 481.371 306.659C479.141 305.354 472.522 307.565 477.639 309.232C475.182 310.988 471.678 313.492 471.757 316.701C473.75 317.407 474.547 314.672 475.961 313.52C475.929 314.142 476.072 314.481 476.165 315.043C478.084 314.625 478.956 312.521 480.319 311.267C480.356 311.29 480.388 311.313 480.425 311.341C480.087 313.018 479.748 314.699 479.387 316.516C481.644 315.354 481.728 312.763 482.905 310.774C482.998 310.798 483.086 310.821 483.179 310.84V315.763C483.253 315.772 483.327 315.786 483.401 315.796C483.976 314.221 484.551 312.642 485.153 310.988C485.603 314.193 487.601 314.746 487.67 311.132C487.782 310.045 489.121 309.715 489.877 308.94C490.54 310.277 491.166 311.546 491.819 312.869C492.431 311.244 494.758 306.404 496.455 309.065C496.654 309.423 496.464 309.78 496.042 309.971C494.197 310.802 493.164 312.331 492.478 314.156C492.338 314.834 492.579 315.41 491.694 315.554C485.19 317.9 478.07 320.074 472.976 324.941C472.155 326.363 464.623 333.497 467.905 333.781C468.883 333.525 469.393 332.759 469.796 331.909C470.26 330.631 471.743 330.079 472.693 329.164C472.726 329.192 472.758 329.219 472.795 329.243C472.23 331.026 471.664 332.805 471.099 334.589C471.159 334.621 471.214 334.654 471.27 334.686C473.833 332.503 473.935 328.625 476.995 327.148C476.907 329.257 476.823 331.24 476.735 333.349C480.309 330.497 478.168 326.251 483.234 325.708C483.424 329.438 479.605 330.144 478.121 332.959C476.202 334.561 473.249 335.379 472.879 338.356C472.304 339.002 470.987 338.774 470.25 339.178C469.059 339.801 466.166 342.778 468.716 343.094C466.236 346.712 463.455 350.423 462.027 354.595C462.713 356.926 465.434 352.472 465.851 351.45C465.786 352.634 465.564 353.916 466.797 354.497C470.603 354.581 471.316 348.12 474 345.923C474.01 347.957 472.577 350.888 473.884 352.537C474.876 352.514 475.289 351.496 475.433 350.642C475.479 345.467 478.511 344.984 482.168 342.397C481.922 344.097 481.338 345.732 481.575 347.483C493.715 325.61 481.153 357.33 494.443 335.527C497.507 336.057 500.747 337.455 496.269 339.54C494.554 340.149 495.611 342.318 494.169 343.098C493.715 343.335 493.558 343.66 493.419 344.102C492.974 346.066 490.85 346.768 489.566 348.106C487.786 349.708 484.977 349.908 484.453 352.644C482.845 355.89 477.913 354.79 476.119 358.222C474.014 361.167 471.752 363.977 468.915 366.272C467.812 366.792 465.402 372.352 467.538 371.497C469.875 370.085 471.201 367.777 472.6 365.524C473.24 364.734 474.269 365.422 475.178 365.454C473.388 368.046 470.825 370.276 469.963 373.374C470.032 373.425 470.097 373.481 470.162 373.536C474.566 371.753 475.836 366.383 479.971 364.581C479.299 367.178 477.389 369.677 477.815 372.357C479.345 371.841 479.795 369.728 480.393 368.483C480.319 369.435 480.142 374.949 481.895 371.818C482.4 370.067 482.432 368.172 483.262 366.523Z" fill="black"/>
</g>
<defs>
<filter id="filter0_d_133_83" x="-66.6" y="183.952" width="1125.44" height="563.382" filterUnits="userSpaceOnUse" color-interpolation-filters="sRGB">
<feFlood flood-opacity="0" result="BackgroundImageFix"/>
<feColorMatrix in="SourceAlpha" type="matrix" values="0 0 0 0 0 0 0 0 0 0 0 0 0 0 0 0 0 0 127 0" result="hardAlpha"/>
<feOffset/>
<feGaussianBlur stdDeviation="122.3"/>
<feComposite in2="hardAlpha" operator="out"/>
<feColorMatrix type="matrix" values="0 0 0 0 0.821663 0 0 0 0 0.821663 0 0 0 0 0.821663 0 0 0 0.7 0"/>
<feBlend mode="normal" in2="BackgroundImageFix" result="effect1_dropShadow_133_83"/>
<feBlend mode="normal" in="SourceGraphic" in2="effect1_dropShadow_133_83" result="shape"/>
</filter>
<filter id="filter1_d_133_83" x="217.427" y="0.244675" width="581.257" height="660.843" filterUnits="userSpaceOnUse" color-interpolation-filters="sRGB">
<feFlood flood-opacity="0" result="BackgroundImageFix"/>
<feColorMatrix in="SourceAlpha" type="matrix" values="0 0 0 0 0 0 0 0 0 0 0 0 0 0 0 0 0 0 127 0" result="hardAlpha"/>
<feOffset/>
<feGaussianBlur stdDeviation="122.3"/>
<feComposite in2="hardAlpha" operator="out"/>
<feColorMatrix type="matrix" values="0 0 0 0 0.821663 0 0 0 0 0.821663 0 0 0 0 0.821663 0 0 0 0.7 0"/>
<feBlend mode="normal" in2="BackgroundImageFix" result="effect1_dropShadow_133_83"/>
<feBlend mode="normal" in="SourceGraphic" in2="effect1_dropShadow_133_83" result="shape"/>
</filter>
</defs>
</svg>
