<?xml version="1.0" encoding="UTF-8"?>
<svg id="Ebene_1" data-name="Ebene 1" xmlns="http://www.w3.org/2000/svg" viewBox="0 0 1722 1300">
  <defs>
    <style>
.cls-1 {letter-spacing: 0em;}
.cls-2 {letter-spacing: -.02em;}
.cls-3 {font-size: 20px;}
.cls-3, .cls-4 {font-family: Karantina-Bold, Karantina;font-weight: 700;}
.cls-3, .cls-4, .cls-5 {fill: #ea6520;}
.cls-3, .cls-6, .cls-7 {isolation: isolate;}
.cls-8 {letter-spacing: -.04em;}
.cls-9 {letter-spacing: -.04em;}
.cls-10 {stroke: #639c00;}
.cls-10, .cls-11, .cls-12, .cls-13, .cls-14, .cls-15 {fill: none;}
.cls-10, .cls-11, .cls-13, .cls-14 {stroke-width: 6px;}
.cls-10, .cls-11, .cls-16 {stroke-miterlimit: 10;}
.cls-11 {stroke: #a056ed;}
.cls-12, .cls-17, .cls-18, .cls-19, .cls-5 {stroke-width: 0px;}
.cls-20 {letter-spacing: -.02em;}
.cls-21 {letter-spacing: -.06em;}
.cls-13 {stroke: #ff2500;}
.cls-13, .cls-14, .cls-15 {stroke-linejoin: round;}
.cls-14 {stroke: #ff8d00;}
.cls-4 {font-size: 12.75px;}
.cls-16 {stroke: #1d1d1b;}
.cls-16, .cls-18 {fill: #122317;}
.cls-22 {letter-spacing: 0em;}
.cls-15 {stroke: #0947df;stroke-width: 1.28px;}
.cls-6 {font-family: ArialMT, Arial;font-size: 15px;}
.cls-23 {letter-spacing: 0em;}
.cls-24 {letter-spacing: 0em;}
.cls-17 {fill: #259538;}
.cls-19 {ill: #fff;}
.cls-25 {letter-spacing: 0em;}
.cls-26 {letter-spacing: 0em;}
    </style>
  </defs>
  <g id="Schwimmen">
    <line class="cls-15" x1="639.3" y1="562.4" x2="691" y2="535.1"/>
    <line class="cls-15" x1="641.4" y1="566.3" x2="693" y2="539.1"/>
    <line class="cls-15" x1="643.4" y1="570.3" x2="695.1" y2="543"/>
    <line class="cls-15" x1="645.4" y1="574.2" x2="697.1" y2="547"/>
  </g>
  <g id="Strecke_Kindertriathlon_Familienstaffel" data-name="Strecke Kindertriathlon + Familienstaffel">
    <path id="Rundstrecke_Laufen" data-name="Rundstrecke Laufen" class="cls-10" d="m701.5,631.6c5.7-17.1,11.1-23,14.3-26.4,8.9-9.4,29.2-18.3,47.8-29.2,18.5-10.9,52.1-63.2,54.1-69.4s-26.2-24.5-33.1-28.2c-15.3-8-36.9-12.4-40-10.9-4.5,2.1-18.1,86.9-22.2,97.5-4.1,10.6-11.4,35.7-45,47.4-18.5,6.5-25.9,9.2-10.6,20.2,8.8,6.3,26.1,24.5,34.7-1Z"/>
    <path id="Rundstrecke_Rad" data-name="Rundstrecke Rad" class="cls-14" d="m584.9,574.8l-23.7-33.5-34.6-37.3s-.8-24.8-13.3-43c-6.2-9-50.9-34.9-98.1-58-46.9-23.1-66.5-16.9-98.4-31.9-49.3-26.4-46-55.6-43.9-54.5,22.6-1.9,40.3,12.8,53.7,16.3,13.3,3.5,45.8,4.9,45.8,4.9l22.1-4.1,33.5-14.7,25.3-16.3s44.4-28.1,59.1-37.6c14.7-9.5,34.6-16.3,43.9-20.7s56.4-16.9,56.4-16.9l44.1-5.7,53.9-5.7s27-.3,34.3.8,24.8,4.6,38.4,4.9c13.6.3,67-2.7,72.7-3.3s6.2-1.5,16.3-.5c12,1.1-45.2,131.3-36,199.4,10.9,80.6,137.3,233.2,130.8,383.6-3.7,86.2-137.9,208.4-191.1,196.6-18.2-85.7-90-106.8-132.5-123.6-71.9-40.3,71.6-88.3,59.2-145.7-9.6-44.8-11.3-55.6-18.5-69,0,0-25.4-26.7-39.3-29.2-13.9-2.5-16.9-10.6-31.9-15.3-14.9-4.6-28.2-40-28.2-40Z"/>
  </g>
  <g id="Strecke_Volkstriathlon_Schnuppertriathlon" data-name="Strecke Volkstriathlon + Schnuppertriathlon">
    <path id="Rundstrecke_Laufen-2" data-name="Rundstrecke Laufen" class="cls-11" d="m701.5,631.6c5.7-17.1,11.1-23,14.3-26.4,8.9-9.4,29.2-18.3,47.8-29.2,18.5-10.9,152.9-37.7,159.4-37.9,4.4-.1,67.2,15.8,73.3,17,1.2.2,60.2,40.3,79,55,7.6,6,20.2,58.3,38.7,92.1,34.2,62.4,182.6,25.2,178.7,0-2.2-14.2-5.4-41.7-.5-73.6,4.2-27.3,4.9-69.2-12-93.2-34.2-48.6-143.8-104.6-165.6-132.9-19.1-7.6-42.9-23.7-64.8-34.9-30-15.3-80.4,12.9-82.1,7.3-.5-1.8-15.4-5.3-18.2-5.1-3.5.2-78.8,5.5-90.6,3.8-23.3-3.4-50.8-16.5-54.1-17.2-2.2-.4-54.2,84.1-61.6,111.7-5.2,19.3-16.5,86.3-20.6,96.9-4.1,10.6-11.4,35.7-45,47.4-18.5,6.5-25.9,9.2-10.6,20.2,8.6,6.3,25.9,24.5,34.5-1Z"/>
    <path id="Rundstrecke_Rad-2" data-name="Rundstrecke Rad" class="cls-13" d="m584.9,574.8l-23.7-33.5-34.6-37.3s-.8-24.8-13.3-43c-6.2-9-50.9-34.9-98.1-58-46.9-23.1-66.5-16.9-98.4-31.9-49.3-26.4-46-55.6-43.9-54.5,22.6-1.9,40.3,12.8,53.7,16.3,13.3,3.5,45.8,4.9,45.8,4.9l22.1-4.1,33.5-14.7,25.3-16.3s44.4-28.1,59.1-37.6c14.7-9.5,34.6-16.3,43.9-20.7s56.4-16.9,56.4-16.9l44.1-5.7,53.9-5.7s27-.3,34.3.8,24.8,4.6,38.4,4.9c13.6.3,67-2.7,72.7-3.3s14.1,2.9,24.2,3.8c12,1.1,91-12,91-12,0,0,62.9-3,74.6-3.3,11.7-.3,50.1,6.8,61.8,9.8,11.6,3,70.3,10.9,86.1,11.4s126.1-11.4,143-11.2c16.9.3,57.8,3,57.8,3,0,0,56.1,1.1,67,.8s37.1,6.5,43.3,6.8c6.3.3,49.9,2.7,57.2,2.2s43-5.2,56.7-5.4c13.6-.3,15.5,1.9,27.2,6.3-6.2,16.1-52.7,123.3-82.2,232.9-11.4,42.5-45.8,216.6-65.4,284.4-8.7,30.1-107.7,255.9-169.5,317.7-74.1,74.1-235.7,187.4-416.3,183.1-83.7-2-215.4-54.1-232.8-90.3,88.6-46,105.3-119.2,95.5-165.5-18.2-85.7-89.4-102.4-131.9-119.1-71.9-40.3,71.6-88.3,59.2-145.7-9.6-44.8-11.3-55.6-18.5-69,0,0-22.9-17.1-29.2-20.7-13.4-7.8-30.1-16.1-40.7-22.3-13.1-7.9-29.3-41.4-29.3-41.4Z"/>
  </g>
  <g id="Infotexte">
    <rect class="cls-12" x="639.29" y="515.5" width="56.6" height="24.8"/>
    <g class="cls-7">
      <text class="cls-3" transform="translate(661.55 502.68)"><tspan class="cls-22" x="0" y="0">W</tspan><tspan x="9.03" y="0">ald</tspan><tspan class="cls-25" x="25.62" y="0">b</tspan><tspan class="cls-1" x="32.2" y="0">ad </tspan></text>
      <text class="cls-3" transform="translate(661.25 516.1)"><tspan class="cls-21" x="0" y="0">T</tspan><tspan class="cls-24" x="5.12" y="0">r</tspan><tspan class="cls-1" x="10.1" y="0">ai</tspan><tspan class="cls-20" x="19.86" y="0">n</tspan><tspan x="26.35" y="0">i</tspan><tspan class="cls-24" x="29.61" y="0">n</tspan><tspan class="cls-25" x="36.28" y="0">g</tspan><tspan x="42.69" y="0">en</tspan></text>
    </g>
    <rect class="cls-12" x="700.69" y="649.9" width="77.9" height="24.4"/>
    <rect class="cls-12" x="654.49" y="580.7" width="46.6" height="11.9"/>
    <rect class="cls-12" x="1300.49" y="558.9" width="18.5" height="11.1"/>
    <rect class="cls-12" x="575.79" y="562" width="70.5" height="26.9"/>
    <rect class="cls-12" x="1394.49" y="194.7" width="18.5" height="11.1"/>
    <rect class="cls-12" x="1125.49" y="1222.2" width="18.5" height="11.1"/>
    <rect class="cls-12" x="967.19" y="690.2" width="18.5" height="11.1"/>
    <g id="START">
      <circle class="cls-16" cx="544.8" cy="582.2" r="20.95"/>
      <text class="cls-4" transform="translate(533.16 586.55)"><tspan class="cls-23" x="0" y="0">S</tspan><tspan class="cls-9" x="4.23" y="0">T</tspan><tspan x="8.33" y="0">A</tspan><tspan class="cls-8" x="14.09" y="0">R</tspan><tspan x="18.68" y="0">T</tspan></text>
    </g>
    <g id="ZIEL">
      <circle class="cls-16" cx="579" cy="626.8" r="20.95"/>
      <text class="cls-4" transform="translate(570.93 631.15)"><tspan class="cls-26" x="0" y="0">Z</tspan><tspan x="4.4" y="0">IEL</tspan></text>
    </g>
    <g id="VP1-ktfs">
      <text class="cls-6" transform="translate(967.16 695.92)"><tspan x="0" y="0">V</tspan><tspan class="cls-2" x="10" y="0">P</tspan><tspan x="19.74" y="0" xml:space="preserve"> 1</tspan></text>
      <path class="cls-18" d="m971.85,635.48v2.76h7.17v-2.76h-7.17Zm1.01,4.41c-1.51,1.52-3.94,4.24-3.94,6.52v3.58h13.05v-3.58c0-2.28-2.43-5-3.95-6.52h-5.15Zm-3.94,11.76v1.47h13.05v-1.47h-13.05Zm0,3.12v1.47h13.05v-1.47h-13.05Zm0,3.12v1.47h13.05v-1.47h-13.05Zm0,3.12v15.63c3.95,1.17,9.09,1.17,13.05,0v-15.63h-13.05Zm20.65,3.12l1.31,13.04h1.51l-.63-10.88,1.65-.09.63,10.98h4.16l1.31-13.04h-9.95Z"/>
    </g>
    <g id="VP3">
      <text class="cls-6" transform="translate(1300.44 564.67)"><tspan x="0" y="0">V</tspan><tspan class="cls-2" x="10" y="0">P</tspan><tspan x="19.74" y="0" xml:space="preserve"> 3</tspan></text>
      <path class="cls-18" d="m1303.42,506.95v2.76h7.17v-2.76h-7.17Zm1.01,4.41c-1.51,1.52-3.94,4.24-3.94,6.52v3.58h13.05v-3.58c0-2.28-2.43-5-3.95-6.52h-5.15Zm-3.94,11.76v1.47h13.05v-1.47h-13.05Zm0,3.12v1.47h13.05v-1.47h-13.05Zm0,3.12v1.47h13.05v-1.47h-13.05Zm0,3.12v15.63c3.95,1.17,9.09,1.17,13.05,0v-15.63h-13.05Zm20.65,3.12l1.31,13.04h1.51l-.63-10.88,1.65-.09.63,10.98h4.16l1.31-13.04h-9.95Z"/>
    </g>
    <g id="VP1">
      <text class="cls-6" transform="translate(1394.45 200.45)"><tspan x="0" y="0">V</tspan><tspan class="cls-2" x="10" y="0">P</tspan><tspan x="19.74" y="0" xml:space="preserve"> 1</tspan></text>
      <path class="cls-18" d="m1398.03,142.84v2.76h7.17v-2.76h-7.17Zm1.01,4.41c-1.51,1.52-3.94,4.24-3.94,6.52v3.58h13.05v-3.58c0-2.28-2.43-5-3.95-6.52h-5.15Zm-3.94,11.76v1.47h13.05v-1.47h-13.05Zm0,3.12v1.47h13.05v-1.47h-13.05Zm0,3.12v1.47h13.05v-1.47h-13.05Zm0,3.12v15.63c3.95,1.17,9.09,1.17,13.05,0v-15.63h-13.05Zm20.65,3.12l1.31,13.04h1.51l-.63-10.88,1.65-.09.63,10.98h4.16l1.31-13.04h-9.95Z"/>
    </g>
    <g id="VP2">
      <text class="cls-6" transform="translate(1107.59 1184.47)"><tspan x="0" y="0">V</tspan><tspan class="cls-2" x="10" y="0">P</tspan><tspan x="19.74" y="0" xml:space="preserve"> 2</tspan></text>
      <path class="cls-18" d="m1110.59,1127.46v2.76h7.17v-2.76h-7.17Zm1.01,4.41c-1.51,1.52-3.94,4.24-3.94,6.52v3.58h13.05v-3.58c0-2.28-2.43-5-3.95-6.52h-5.15Zm-3.94,11.76v1.47h13.05v-1.47h-13.05Zm0,3.12v1.47h13.05v-1.47h-13.05Zm0,3.12v1.47h13.05v-1.47h-13.05Zm0,3.12v15.63c3.95,1.17,9.09,1.17,13.05,0v-15.63h-13.05Zm20.65,3.12l1.31,13.04h1.51l-.63-10.88,1.65-.09.63,10.98h4.16l1.31-13.04h-9.95Z"/>
    </g>
    <g id="wechselzone-rad-laufen">
      <path class="cls-5" d="m738.66,633.73v7.01l9.35-9.35-9.35-9.35v7.01c-4.96,0-9.72,1.97-13.22,5.48-3.51,3.51-5.48,8.26-5.48,13.22,0,3.67,1.08,7.08,2.9,9.96l3.41-3.41c-1.08-2.01-1.64-4.26-1.64-6.54,0-3.72,1.48-7.29,4.11-9.92s6.2-4.11,9.92-4.11Z"/>
      <path class="cls-19" d="m754.46,637.79l-3.41,3.41c1.03,1.96,1.64,4.21,1.64,6.54,0,3.72-1.48,7.29-4.11,9.92-2.63,2.63-6.2,4.11-9.92,4.11v-7.01l-9.35,9.35,9.35,9.35v-7.01c4.96,0,9.72-1.97,13.22-5.48,3.51-3.51,5.48-8.26,5.48-13.22,0-3.67-1.08-7.08-2.9-9.96Z"/>
    </g>
    <g id="wechselzone-schwimmen-rad">
      <path class="cls-5" d="m601.55,521.08v7.01l9.35-9.35-9.35-9.35v7.01c-4.96,0-9.72,1.97-13.22,5.48-3.51,3.51-5.48,8.26-5.48,13.22,0,3.67,1.08,7.08,2.9,9.96l3.41-3.41c-1.08-2.01-1.64-4.26-1.64-6.54,0-3.72,1.48-7.29,4.11-9.92s6.2-4.11,9.92-4.11Z"/>
      <path class="cls-17" d="m617.35,525.14l-3.41,3.41c1.03,1.96,1.64,4.21,1.64,6.54,0,3.72-1.48,7.29-4.11,9.92-2.63,2.63-6.2,4.11-9.92,4.11v-7.01l-9.35,9.35,9.35,9.35v-7.01c4.96,0,9.72-1.97,13.22-5.48,3.51-3.51,5.48-8.26,5.48-13.22,0-3.67-1.08-7.08-2.9-9.96Z"/>
    </g>
  </g>
</svg>